<svg width="32" height="32" viewBox="0 0 32 32" fill="none" xmlns="http://www.w3.org/2000/svg">
<path d="M0.5 31.25V19H3V31.25H0.5Z" fill="#74C388"/>
<path d="M13.5 6V7V9L14.5 12L16.5 14L19 17L20.5 17.5L21.5 17L23.5 15L25.5 12.5L25 11.5L23.5 10L20.8125 7L19.5 6H18L16 5.5H14.5L13.5 6Z" fill="#74C388"/>
<path d="M31.7015 19.6267C30.7409 18.3467 29.7802 18.3467 27.4319 19.5734L22.8421 22.4C22.2017 22.7733 20.7607 22.88 19.4265 22.88C19.6934 22.4 19.5866 21.8133 19.1063 21.12C18.2524 19.8933 16.8114 19.1467 15.2637 19.1467H13.1823C12.0615 19.1467 10.9941 18.8267 10.1402 18.1867C8.21445 16.7434 5.20309 18.3139 3.73585 19.2506V18.1334H0V32H3.73585V30.4H10.6739C11.7413 30.4 12.862 30.2933 13.9294 30.24L20.8674 29.1733C21.1343 29.1733 21.4011 29.12 21.6146 29.0666C22.255 28.9599 22.8421 28.6399 23.3758 28.1599L31.4346 21.7599C32.0751 21.2267 32.1818 20.2667 31.7015 19.6267ZM2.66844 30.9333H1.06735V19.2H2.66844V20V30.4V30.9333ZM30.7942 21.0133L22.682 27.3067L22.6287 27.36C22.3084 27.7333 21.8815 27.9467 21.4011 28C21.1877 28.0533 21.0276 28.0533 20.8141 28.0533L13.7693 29.12C12.7553 29.28 11.6879 29.3333 10.6739 29.3333H3.73585V20.5333C5.01672 19.6266 8.00543 17.92 9.49976 19.0933C10.5138 19.84 11.7946 20.2666 13.1823 20.2666H15.2637C16.4912 20.2666 17.6119 20.7999 18.3057 21.8133C18.5192 22.1333 18.5726 22.4533 18.5192 22.56C18.3591 22.8267 17.7186 22.9333 17.0249 22.9867C16.8764 22.9867 16.7284 22.9867 16.5979 22.9867C16.5407 22.9867 16.4866 22.9867 16.4378 22.9867H11.4211C9.76663 22.9867 8.75256 23.7867 8.75256 25.12C8.75256 25.44 8.96602 25.6533 9.28624 25.6533C9.60645 25.6533 9.81991 25.44 9.81991 25.12C9.81991 24.8533 9.81991 24.0533 11.421 24.0533H16.3844C16.5445 24.0533 16.7579 24.0533 17.0781 24.0533C17.1315 24.0533 17.2383 24.0533 17.345 24.0533C19.8534 24.1066 22.2016 24.0533 23.4291 23.4133L28.0189 20.5866C30.2605 19.4666 30.4739 19.7333 30.9009 20.3733C31.0077 20.5333 31.0077 20.8533 30.7942 21.0133Z" fill="black"/>
<path d="M19.9068 15.3067C20.0136 15.4134 20.1203 15.4667 20.2804 15.4667C20.4405 15.4667 20.5472 15.4134 20.6539 15.3067L22.255 13.7067C22.4685 13.4934 22.4685 13.1734 22.255 12.9601C22.0416 12.7467 21.7213 12.7467 21.5078 12.9601L19.9067 14.5601C19.6933 14.7734 19.6933 15.0934 19.9068 15.3067Z" fill="black"/>
<path d="M18.3057 12.9599C18.0923 13.1732 18.0923 13.4932 18.3057 13.7066C18.4125 13.8133 18.5192 13.8666 18.6793 13.8666C18.8394 13.8666 18.9462 13.8133 19.0529 13.7066L20.6539 12.1066C20.8674 11.8933 20.8674 11.5733 20.6539 11.3599C20.4405 11.1466 20.1203 11.1466 19.9067 11.3599L18.3057 12.9599Z" fill="black"/>
<path d="M11.2076 7.9565V16.5334C11.2076 16.6934 11.2609 16.8001 11.3677 16.9067L13.0221 18.5067C13.1289 18.6134 13.2356 18.6667 13.3957 18.6667C13.5024 18.6667 13.6626 18.6134 13.7693 18.5067L15.317 16.9067C15.4237 16.8 15.4771 16.6934 15.4771 16.5334V16C15.4771 15.84 15.4237 15.7333 15.317 15.6267L14.6232 14.9334L15.317 14.2401C15.4237 14.1334 15.4771 14.0267 15.4771 13.8667L19.3731 17.7601C19.6933 18.0268 20.0668 18.1868 20.4405 18.1868C20.7607 18.1868 21.0809 18.0801 21.3478 17.8134L25.7775 13.3868C26.0443 13.1201 26.151 12.7468 26.151 12.3734C26.151 12.0001 25.9909 11.6801 25.7241 11.4134L20.9335 6.62612C21.2094 6.05188 21.3478 5.44325 21.3478 4.80006C21.3478 2.45338 19.4265 0.533375 17.0782 0.533375C16.6373 0.533375 16.1965 0.607375 15.7556 0.752937C15.0679 0.278812 14.2363 0 13.3423 0C10.9941 0 9.07275 1.92 9.07275 4.26669C9.07275 5.83737 9.93415 7.21588 11.2076 7.9565ZM14.4097 13.6533L13.5024 14.56C13.289 14.7733 13.289 15.0933 13.5024 15.3067L14.4097 16.2134V16.3201L13.3423 17.3867L12.2749 16.32V8.42669C12.5418 8.48 12.8086 8.53337 13.0755 8.53337L13.5024 11.0934C13.5558 11.6801 13.876 12.2667 14.303 12.6934L14.4097 12.8001V13.6533ZM25.0836 12.4267C25.0836 12.48 25.0836 12.5334 25.0303 12.5867L20.6006 17.0134C20.4938 17.1201 20.2804 17.1201 20.1202 16.9601L15.0501 11.8934C14.7833 11.6267 14.5698 11.2534 14.5164 10.8801L14.2229 8.88006L14.0895 7.94669C14.0895 7.94556 14.0893 7.9445 14.0893 7.94338C14.0895 7.92675 14.0895 7.91006 14.0895 7.89337L14.0794 7.82912C14.8519 8.593 15.9123 9.06669 17.0782 9.06669C17.3985 9.06669 17.6119 8.85337 17.6119 8.53337C17.6119 8.21338 17.3984 8 17.0782 8C15.8003 8 14.6916 7.24163 14.179 6.15325C14.26 6.08288 14.3623 6.02588 14.4752 5.99231C14.5401 5.97962 14.6081 5.97331 14.6766 5.97331C14.7201 5.97331 14.7641 5.97331 14.8367 5.97331L16.7046 6.24C16.7253 6.24412 16.7455 6.24656 16.7654 6.24819L18.8928 6.56C19.2664 6.61331 19.64 6.82669 19.9068 7.09331L24.9769 12.16C25.0303 12.2133 25.0836 12.32 25.0836 12.4267ZM17.0782 1.6C18.8394 1.6 20.2804 3.04 20.2804 4.8C20.2804 5.17331 20.227 5.54669 20.1202 5.86669C19.8 5.70669 19.4265 5.54669 19.0528 5.49337L17.5051 5.28006C17.518 5.20281 17.5309 5.1255 17.543 5.04744C17.5788 4.847 17.6007 4.64256 17.608 4.43188C17.6103 4.37781 17.6119 4.32306 17.6119 4.26675C17.6119 4.19894 17.6099 4.13119 17.6067 4.0635C17.6058 4.04537 17.6044 4.02737 17.6033 4.00925C17.6002 3.95656 17.5962 3.904 17.5912 3.8515C17.5898 3.83806 17.5884 3.82463 17.587 3.81119C17.5027 3.00787 17.1985 2.22837 16.7045 1.60006C16.8114 1.6 16.9715 1.6 17.0782 1.6ZM13.3423 1.06669C14.0549 1.06669 14.7149 1.30256 15.2484 1.69981C15.269 1.722 15.2912 1.74275 15.3171 1.76006C15.8144 2.15769 16.1673 2.65825 16.3635 3.21056C16.3671 3.22081 16.3705 3.23112 16.374 3.24137C16.3879 3.282 16.401 3.32294 16.4132 3.36413C16.4187 3.3825 16.4239 3.401 16.4291 3.4195C16.4385 3.45363 16.4473 3.48787 16.4556 3.52231C16.461 3.54456 16.4663 3.56681 16.4712 3.58919C16.4782 3.62119 16.4844 3.65338 16.4904 3.68563C16.4948 3.70938 16.4994 3.73306 16.5032 3.757C16.5085 3.78969 16.5128 3.82256 16.5171 3.8555C16.5201 3.87875 16.5236 3.90188 16.5261 3.92525C16.53 3.962 16.5327 3.999 16.5354 4.03594C16.5368 4.05562 16.5388 4.07519 16.5399 4.095C16.5429 4.152 16.5446 4.20925 16.5446 4.26669C16.5446 4.31744 16.5429 4.36819 16.5402 4.41881C16.5399 4.42525 16.5394 4.43163 16.5391 4.438C16.5363 4.48413 16.5326 4.53013 16.5279 4.576C16.5274 4.58131 16.5269 4.58681 16.5264 4.59212C16.5242 4.61306 16.5213 4.63375 16.5188 4.65456C16.4983 4.81612 16.4683 4.96825 16.4379 5.12L14.9969 4.90669C14.613 4.87181 14.2293 4.92894 13.8901 5.09144C13.8813 4.99537 13.8761 4.89825 13.8761 4.8C13.8761 4.32 13.9829 3.84 14.1964 3.41331C14.3031 3.14663 14.1964 2.82663 13.9295 2.72C13.6626 2.61331 13.3424 2.72 13.2357 2.98669C12.9688 3.52 12.8087 4.16 12.8087 4.8C12.8087 5.22075 12.8715 5.62738 12.9863 6.01213C12.8483 6.32963 12.7991 6.69394 12.8621 7.04L12.9154 7.41331C12.8748 7.40912 12.8344 7.40356 12.7942 7.39769C12.5267 7.34469 12.2673 7.26175 12.0081 7.14663C11.9799 7.13725 11.9496 7.13019 11.9187 7.12437C10.8725 6.60987 10.1402 5.50212 10.1402 4.26662C10.1402 2.50669 11.5811 1.06669 13.3423 1.06669Z" fill="black"/>
</svg>
