<svg width="24" height="24" viewBox="0 0 24 24" fill="none" xmlns="http://www.w3.org/2000/svg">
<path d="M21 20.0191C21 20.5586 20.5598 21 20.0217 21H15.4239V14.0354H17.7717L18.1141 11.3379H15.4239V9.62125C15.4239 8.83651 15.6196 8.29702 16.7446 8.29702H18.163V5.84471C17.9185 5.79566 17.087 5.74661 16.0598 5.74661C14.0054 5.74661 12.587 7.02181 12.587 9.32699V11.3379H10.2391V14.0354H12.587V21H3.97826C3.44022 21 3 20.5586 3 20.0191V3.98093C3 3.44142 3.44022 3 3.97826 3H19.9728C20.5109 3 20.9511 3.44142 20.9511 3.98093V20.0191H21Z" fill="#13203A"/>
</svg>
