<svg width="24" height="24" viewBox="0 0 24 24" fill="none" xmlns="http://www.w3.org/2000/svg">
<path d="M24 22.6921C24 23.4114 23.413 24 22.6957 24H16.5652V14.7139H19.6957L20.1522 11.1172H16.5652V8.82833C16.5652 7.78201 16.8261 7.0627 18.3261 7.0627H20.2174V3.79295C19.8913 3.72755 18.7826 3.66215 17.413 3.66215C14.6739 3.66215 12.7826 5.36241 12.7826 8.43598V11.1172H9.65218V14.7139H12.7826V24H1.30435C0.586956 24 0 23.4114 0 22.6921V1.3079C0 0.588556 0.586956 0 1.30435 0H22.6304C23.3478 0 23.9348 0.588556 23.9348 1.3079V22.6921H24Z" fill="white"/>
</svg>
