<svg width="32" height="32" viewBox="0 0 32 32" fill="none" xmlns="http://www.w3.org/2000/svg">
<path d="M14.5 26.75H13H12.75L13 28.5L13.5 29.5L13.75 31.25H18.25V29.25L19 28.5V26.5L17.75 26.75H14.5Z" fill="#74C388"/>
<path d="M19.1268 30.7878V29.5211H19.1512C19.4859 29.5211 19.7571 29.2498 19.7571 28.915V27.2144H19.9995C20.3342 27.2144 20.6055 26.9431 20.6055 26.6083V25.2074C22.3954 24.3892 23.9226 23.1019 25.0391 21.4652C26.2626 19.672 26.9093 17.5727 26.9093 15.3938C26.9093 12.484 25.7681 9.75636 23.6963 7.7129C21.6237 5.66897 18.879 4.56686 15.9657 4.60711C13.215 4.64594 10.5834 5.77977 8.55579 7.80003C6.52775 9.82005 5.38401 12.4473 5.33525 15.1978C5.29572 17.4152 5.92416 19.5565 7.15263 21.3899C8.27341 23.0629 9.81811 24.3762 11.6374 25.2074V26.6083C11.6374 26.9431 11.9086 27.2144 12.2433 27.2144H12.4857V28.915C12.4857 29.2496 12.757 29.5211 13.0917 29.5211H13.1158V30.7878H13.1619C12.8272 30.7878 12.556 31.0591 12.556 31.3939C12.556 31.7287 12.8272 32 13.1619 32H19.1268C19.4615 32 19.7328 31.7287 19.7328 31.3939C19.7328 31.0591 19.4613 30.7878 19.1268 30.7878ZM6.54692 15.2195C6.63615 10.1951 10.9573 5.89034 15.983 5.81931C18.5696 5.78309 21.006 6.76185 22.8454 8.57612C24.6845 10.3899 25.6973 12.811 25.6973 15.3938C25.6973 19.2887 23.3701 22.7648 19.7685 24.2497C19.5417 24.3432 19.3936 24.5646 19.3936 24.8101V26.0022H12.849V24.8101C12.849 24.5646 12.7011 24.3432 12.4741 24.2497C8.8029 22.7361 6.47638 19.1916 6.54692 15.2195ZM18.5452 27.2144V28.3089H13.6976V27.2144H18.5452ZM14.3277 30.7878V29.5211H17.9149V30.7878H14.3277Z" fill="#13203A"/>
<path d="M16.1212 3.87879C15.7864 3.87879 15.5151 3.61127 15.5151 3.28172V1.56677C15.5151 1.23698 15.7864 0.969696 16.1212 0.969696C16.456 0.969696 16.7273 1.23698 16.7273 1.56677V3.28172C16.7273 3.61127 16.456 3.87879 16.1212 3.87879Z" fill="#74C388"/>
<path d="M30.1909 16.2424H28.476C28.1462 16.2424 27.8789 15.9711 27.8789 15.6364C27.8789 15.3016 28.1462 15.0303 28.476 15.0303H30.1909C30.5207 15.0303 30.788 15.3016 30.788 15.6364C30.788 15.9711 30.5207 16.2424 30.1909 16.2424Z" fill="#74C388"/>
<path d="M3.71685 16.2424H1.85899C1.50171 16.2424 1.21216 15.9711 1.21216 15.6364C1.21216 15.3016 1.50171 15.0303 1.85899 15.0303H3.71685C4.07386 15.0303 4.36367 15.3016 4.36367 15.6364C4.36367 15.9711 4.07386 16.2424 3.71685 16.2424Z" fill="#74C388"/>
<path d="M26.0653 26.4242C25.9114 26.4242 25.7575 26.3596 25.64 26.2304L24.4186 24.8869C24.1837 24.6285 24.1837 24.2096 24.4186 23.9514C24.6533 23.693 25.0341 23.693 25.2691 23.9514L26.4905 25.2949C26.7254 25.5533 26.7254 25.9723 26.4905 26.2304C26.373 26.3596 26.2191 26.4242 26.0653 26.4242Z" fill="#74C388"/>
<path d="M7.33841 7.51515C7.16916 7.51515 6.9999 7.45666 6.87071 7.33919L5.52729 6.11779C5.2689 5.88286 5.2689 5.50204 5.52729 5.26711C5.78569 5.03218 6.20456 5.03218 6.46295 5.26711L7.80636 6.48851C8.06476 6.72344 8.06476 7.10426 7.80636 7.33919C7.67717 7.45666 7.50791 7.51515 7.33841 7.51515Z" fill="#74C388"/>
<path d="M5.99502 26.4242C5.82576 26.4242 5.65651 26.3596 5.5273 26.2304C5.26889 25.972 5.26889 25.5531 5.5273 25.2949L6.87076 23.9514C7.12917 23.693 7.54805 23.693 7.80645 23.9512C8.0646 24.2096 8.06486 24.6285 7.80645 24.8869L6.46299 26.2304C6.33379 26.3596 6.16428 26.4242 5.99502 26.4242Z" fill="#74C388"/>
<path d="M24.8439 7.51515C24.69 7.51515 24.5359 7.45666 24.4186 7.33919C24.1837 7.10426 24.1837 6.72344 24.4186 6.48851L25.64 5.26711C25.8747 5.03218 26.2555 5.03218 26.4905 5.26711C26.7254 5.50204 26.7254 5.88286 26.4905 6.11779L25.2691 7.33919C25.1516 7.45666 24.9977 7.51515 24.8439 7.51515Z" fill="#74C388"/>
<path d="M16.9119 14.9078H15.3129C14.7401 14.9078 14.2747 14.4401 14.2747 13.8644C14.2747 13.2888 14.7401 12.8211 15.3129 12.8211H18.1411C18.5349 12.8211 18.8571 12.4973 18.8571 12.1015C18.8571 11.7057 18.5349 11.3819 18.1411 11.3819H16.8344V10.4165C16.8344 10.0208 16.5122 9.69696 16.1184 9.69696C15.7246 9.69696 15.4024 10.0208 15.4024 10.4165V11.3819H15.3188C13.9584 11.3819 12.8486 12.4973 12.8486 13.8644C12.8486 15.2316 13.9584 16.3469 15.3188 16.3469H16.9179C17.4907 16.3469 17.9561 16.8146 17.9561 17.3903C17.9561 17.9659 17.4907 18.4337 16.9179 18.4337H14.042C13.6482 18.4337 13.326 18.7575 13.326 19.1532C13.326 19.549 13.6482 19.8728 14.042 19.8728H15.4024V20.8562C15.4024 21.2519 15.7246 21.5757 16.1184 21.5757C16.5122 21.5757 16.8344 21.2519 16.8344 20.8562V19.8728H16.9358C16.9418 19.8728 16.9477 19.8728 16.9537 19.8728C18.3022 19.8548 19.3941 18.7455 19.3941 17.3903C19.3822 16.0231 18.2724 14.9078 16.9119 14.9078Z" fill="#13203A"/>
</svg>
