<svg width="72" height="72" viewBox="0 0 72 72" fill="none" xmlns="http://www.w3.org/2000/svg">
<rect x="2.25" y="63" width="49.5" height="6.75" fill="#74C388"/>
<path d="M66 0H15.6C12.288 0.0039 9.6039 2.688 9.6 6V62.4H1.2C0.5373 62.4 0 62.9373 0 63.6V66C0.0039 69.312 2.688 71.9961 6 72H56.4C59.712 71.9961 62.3961 69.312 62.4 66V37.6968L69.8484 30.2484C71.3111 28.7858 71.3111 26.4143 69.8484 24.9516C68.3858 23.489 66.0143 23.489 64.5516 24.9516L62.4 27.1032V9.6H70.8C71.4627 9.6 72 9.0627 72 8.4V6C71.9961 2.688 69.312 0.0039 66 0ZM6 69.6C4.01175 69.6 2.4 67.9883 2.4 66V64.8H50.4V66C50.4027 66.374 50.4405 66.7467 50.5128 67.1136C50.5344 67.2336 50.5692 67.3356 50.5968 67.4472C50.6564 67.6916 50.7309 67.932 50.82 68.1672C50.8668 68.2872 50.9172 68.4 50.9712 68.5152C51.0735 68.7339 51.189 68.9463 51.3168 69.1512C51.3792 69.252 51.4368 69.354 51.5076 69.45C51.5412 69.4992 51.5664 69.5532 51.6024 69.6H6ZM60 66C60 67.9883 58.3883 69.6 56.4 69.6C54.4118 69.6 52.8 67.9883 52.8 66V63.6C52.8 62.9373 52.2627 62.4 51.6 62.4H12V6C12 4.01175 13.6118 2.4 15.6 2.4H61.2C61.164 2.4468 61.1388 2.5008 61.1052 2.55C61.0368 2.646 60.9768 2.748 60.9144 2.8488C60.7866 3.0537 60.6711 3.2661 60.5688 3.4848C60.5148 3.6048 60.4644 3.7152 60.4176 3.8328C60.3285 4.068 60.254 4.30845 60.1944 4.5528C60.1668 4.6644 60.132 4.7724 60.1104 4.8864C60.0389 5.2533 60.002 5.6262 60 6V29.5032L44.7516 44.7516C44.5977 44.9055 44.4887 45.0984 44.436 45.3096L43.236 50.1096C43.134 50.5184 43.2539 50.9505 43.5516 51.2484C43.6529 51.3458 43.7708 51.4242 43.8996 51.48C43.9308 51.4944 43.9596 51.5076 43.992 51.5196C44.1201 51.5685 44.2557 51.5954 44.3928 51.5988H44.4C44.498 51.5987 44.5955 51.5867 44.6904 51.5628L49.4904 50.3628C49.7016 50.3102 49.8945 50.2011 50.0484 50.0472L60 40.0968V66ZM66.2484 26.6484C66.7809 26.1398 67.6191 26.1398 68.1516 26.6484C68.6761 27.1743 68.6761 28.0257 68.1516 28.5516L67.2 29.5032L65.2968 27.6L66.2484 26.6484ZM63.6 29.2968L65.5032 31.2L48.5832 48.12L46.0464 48.7548L46.6812 46.218L63.6 29.2968ZM69.6 7.2H62.4V6C62.4 4.01175 64.0117 2.4 66 2.4C67.9883 2.4 69.6 4.01175 69.6 6V7.2Z" fill="#13203A"/>
<path d="M49.2 7.2H22.8V9.6H49.2V7.2Z" fill="#13203A"/>
<path d="M53.5032 12.3516L51.3036 14.5512C51.135 14.4557 50.9452 14.4038 50.7516 14.4H44.7516C44.0889 14.4 43.5516 14.9373 43.5516 15.6V21.6C43.5516 22.2627 44.0889 22.8 44.7516 22.8H50.7516C51.4143 22.8 51.9516 22.2627 51.9516 21.6V17.2968L55.2 14.0484L53.5032 12.3516ZM49.5516 20.4H45.9516V16.8H49.0548L47.5032 18.3516L49.2 20.0484L49.5516 19.6968V20.4Z" fill="#13203A"/>
<path d="M42 14.4H16.8V16.8H42V14.4Z" fill="#13203A"/>
<path d="M42 19.2H21.6V21.6H42V19.2Z" fill="#13203A"/>
<path d="M53.5032 24.3516L51.3036 26.5512C51.135 26.4556 50.9452 26.4037 50.7516 26.4H44.7516C44.0889 26.4 43.5516 26.9373 43.5516 27.6V33.6C43.5516 34.2627 44.0889 34.8 44.7516 34.8H50.7516C51.4143 34.8 51.9516 34.2627 51.9516 33.6V29.2968L55.2 26.0484L53.5032 24.3516ZM49.5516 32.4H45.9516V28.8H49.0548L47.5032 30.3516L49.2 32.0484L49.5516 31.6968V32.4Z" fill="#13203A"/>
<path d="M42 26.4H16.8V28.8H42V26.4Z" fill="#13203A"/>
<path d="M42 31.2H21.6V33.6H42V31.2Z" fill="#13203A"/>
<path d="M53.5032 36.3516L51.3036 38.5512C51.135 38.4556 50.9452 38.4037 50.7516 38.4H44.7516C44.0889 38.4 43.5516 38.9373 43.5516 39.6V45.6C43.5516 46.2627 44.0889 46.8 44.7516 46.8H50.7516C51.4143 46.8 51.9516 46.2627 51.9516 45.6V41.2968L55.2 38.0484L53.5032 36.3516ZM49.5516 44.4H45.9516V40.8H49.0548L47.5032 42.3516L49.2 44.0484L49.5516 43.6968V44.4Z" fill="#13203A"/>
<path d="M42 38.4H26.4V40.8H42V38.4Z" fill="#13203A"/>
<path d="M42 43.2H31.2V45.6H42V43.2Z" fill="#13203A"/>
<path d="M53.5032 48.3516L51.3036 50.5512C51.135 50.4556 50.9452 50.4037 50.7516 50.4H44.7516C44.0889 50.4 43.5516 50.9373 43.5516 51.6V57.6C43.5516 58.2627 44.0889 58.8 44.7516 58.8H50.7516C51.4143 58.8 51.9516 58.2627 51.9516 57.6V53.2968L55.2 50.0484L53.5032 48.3516ZM49.5516 56.4H45.9516V52.8H49.0548L47.5032 54.3516L49.2 56.0484L49.5516 55.6968V56.4Z" fill="#13203A"/>
<path d="M42 50.4H31.2V52.8H42V50.4Z" fill="#13203A"/>
<path d="M42 55.2H21.6V57.6H42V55.2Z" fill="#13203A"/>
</svg>
