<svg width="24" height="24" viewBox="0 0 24 24" fill="none" xmlns="http://www.w3.org/2000/svg">
<path d="M21.1226 0H2.8774C1.30792 0 0 1.24589 0 2.81967V21.1803C0 22.7541 1.30792 24 2.8774 24H21.1226C22.6921 24 24 22.7541 24 21.1803V2.81967C23.9346 1.24589 22.6921 0 21.1226 0ZM17.1989 3.73772C17.1989 3.34427 17.5259 3.01638 17.9183 3.01638H20.1417C20.534 3.01638 20.861 3.34427 20.861 3.73772V5.9672C20.861 6.36064 20.534 6.68854 20.1417 6.68854H17.9183C17.5259 6.68854 17.1989 6.36064 17.1989 5.9672V3.73772ZM11.9673 7.40983C14.5177 7.40983 16.6104 9.44262 16.6104 12C16.6104 14.5574 14.5177 16.5902 11.9673 16.5902C9.41688 16.5902 7.38964 14.5574 7.38964 12C7.38964 9.50819 9.41688 7.40983 11.9673 7.40983ZM21.7112 21.0492C21.7112 21.4426 21.3842 21.7705 20.9918 21.7705H3.0082C2.61583 21.7705 2.28883 21.4426 2.28883 21.0492V9.77047H5.29703C4.90465 10.3606 4.77383 11.4098 4.77383 12.0656C4.77383 16.0656 8.04359 19.3443 12.0981 19.3443C16.1526 19.3443 19.4223 16.0656 19.4223 12.0656C19.4223 11.4098 19.3569 10.3606 18.8338 9.77047H21.8419V21.0492H21.7112Z" fill="white"/>
</svg>
