<svg width="24" height="24" viewBox="0 0 24 24" fill="none" xmlns="http://www.w3.org/2000/svg">
<path d="M18.842 3H5.15805C3.98094 3 3 3.93442 3 5.11475V18.8853C3 20.0656 3.98094 21 5.15805 21H18.842C20.0191 21 21 20.0656 21 18.8853V5.11475C20.951 3.93442 20.0191 3 18.842 3ZM15.8992 5.80329C15.8992 5.5082 16.1444 5.26228 16.4387 5.26228H18.1063C18.4005 5.26228 18.6458 5.5082 18.6458 5.80329V7.4754C18.6458 7.77048 18.4005 8.0164 18.1063 8.0164H16.4387C16.1444 8.0164 15.8992 7.77048 15.8992 7.4754V5.80329ZM11.9755 8.55737C13.8883 8.55737 15.4578 10.082 15.4578 12C15.4578 13.918 13.8883 15.4426 11.9755 15.4426C10.0627 15.4426 8.54223 13.918 8.54223 12C8.54223 10.1311 10.0627 8.55737 11.9755 8.55737ZM19.2834 18.7869C19.2834 19.082 19.0382 19.3279 18.7439 19.3279H5.25615C4.96187 19.3279 4.71662 19.082 4.71662 18.7869V10.3279H6.97277C6.67849 10.7705 6.58037 11.5574 6.58037 12.0492C6.58037 15.0492 9.0327 17.5082 12.0736 17.5082C15.1144 17.5082 17.5668 15.0492 17.5668 12.0492C17.5668 11.5574 17.5177 10.7705 17.1253 10.3279H19.3814V18.7869H19.2834Z" fill="#13203A"/>
</svg>
