<svg width="24" height="24" viewBox="0 0 24 24" fill="none" xmlns="http://www.w3.org/2000/svg">
<path d="M6.98919 8.95538H3.48648V20.0473H6.98919V8.95538Z" fill="#13203A"/>
<path d="M16.5243 8.85809C14.5297 8.85809 13.2649 9.92836 13.0216 10.7067V8.95539H9.08107C9.12972 9.87971 9.08107 20.0473 9.08107 20.0473H13.0216V14.0635C13.0216 13.723 13.0216 13.3824 13.1189 13.1392C13.4108 12.4581 13.9459 11.777 15.0162 11.777C16.3784 11.777 17.0108 12.7986 17.0108 14.3067V20.0473H21V13.8689C20.9513 10.4635 19.0054 8.85809 16.5243 8.85809Z" fill="#13203A"/>
<path d="M5.14055 3.75C3.82704 3.75 3 4.57703 3 5.69595C3 6.76622 3.82702 7.59324 5.09189 7.59324H5.14055C6.45407 7.59324 7.28108 6.76621 7.28108 5.64729C7.23243 4.57702 6.45407 3.75 5.14055 3.75Z" fill="#13203A"/>
</svg>
