<svg width="32" height="32" viewBox="0 0 32 32" fill="none" xmlns="http://www.w3.org/2000/svg">
<path d="M9.31896 11.9406H4.64868V26.7297H9.31896V11.9406Z" fill="white"/>
<path d="M22.0325 11.8108C19.373 11.8108 17.6866 13.2378 17.3622 14.2757V11.9405H12.1082C12.173 13.173 12.1082 26.7297 12.1082 26.7297H17.3622V18.7514C17.3622 18.2973 17.3622 17.8432 17.4919 17.5189C17.8811 16.6108 18.5946 15.7027 20.0217 15.7027C21.8379 15.7027 22.6811 17.0649 22.6811 19.0757V26.7297H28V18.4919C27.9352 13.9514 25.3406 11.8108 22.0325 11.8108Z" fill="white"/>
<path d="M6.85407 5C5.10272 5 4 6.1027 4 7.59459C4 9.02162 5.10269 10.1243 6.78918 10.1243H6.85407C8.60542 10.1243 9.7081 9.02162 9.7081 7.52973C9.64324 6.1027 8.60542 5 6.85407 5Z" fill="white"/>
</svg>
