<svg width="72" height="72" viewBox="0 0 72 72" fill="none" xmlns="http://www.w3.org/2000/svg">
<rect x="57.375" y="19.125" width="13.5" height="29.25" fill="#74C388"/>
<rect x="61.875" y="10.125" width="9" height="9" fill="#74C388"/>
<rect x="1.125" y="1.125" width="69.75" height="9" fill="#74C388"/>
<circle cx="25.875" cy="9" r="3.375" fill="#F8F8FA"/>
<ellipse cx="15.1875" cy="10.125" rx="5.0625" ry="4.5" fill="#F8F8FA"/>
<path d="M16.2581 66.1936C16.2581 66.8349 15.7381 67.3548 15.0968 67.3548C14.4555 67.3548 13.9355 66.8349 13.9355 66.1936C13.9355 65.5522 14.4555 65.0323 15.0968 65.0323C15.7381 65.0323 16.2581 65.5522 16.2581 66.1936Z" fill="black"/>
<path d="M72 0H0V48.7742H9.29032V66.1936C9.29032 69.395 11.8953 72 15.0968 72C18.2983 72 20.9032 69.395 20.9032 66.1936V48.7742H72V0ZM69.6774 9.29032H65.0323V2.32258H69.6774V9.29032ZM13.9355 44.129V32.6335C14.3109 32.557 14.6998 32.5161 15.0968 32.5161C15.4937 32.5161 15.8827 32.557 16.2581 32.6335V44.129H13.9355ZM11.6129 37.1613H9.4077C9.69462 35.7528 10.506 34.545 11.6129 33.7075V37.1613ZM18.5806 33.7075C19.6875 34.545 20.4989 35.7539 20.7858 37.1613H18.5806V33.7075ZM23.1328 37.1613C22.5663 33.2289 19.1834 30.1935 15.0968 30.1935C11.0101 30.1935 7.6272 33.2289 7.06074 37.1613H6.04574C3.9925 37.1613 2.32258 35.4914 2.32258 33.4381C2.32258 32.9715 2.40877 32.5139 2.57945 32.0806L11.4808 9.33455C12.0427 7.89655 13.4036 6.96774 14.9471 6.96774H15.2465C16.7899 6.96774 18.1508 7.89655 18.7128 9.33455L27.6152 32.0818C27.7848 32.5139 27.871 32.9715 27.871 33.4381C27.871 35.4914 26.201 37.1613 24.1478 37.1613H23.1328ZM58.0645 37.1613V30.1935H60.3871V37.1613H58.0645ZM58.0645 27.871V20.9032H62.7097V27.871H58.0645ZM58.0645 18.5806C58.0645 16.0188 55.9812 13.9355 53.4194 13.9355C50.8575 13.9355 48.7742 16.0188 48.7742 18.5806V37.1613C48.7742 38.4422 47.7325 39.4839 46.4516 39.4839C45.1707 39.4839 44.129 38.4422 44.129 37.1613V20.9032C44.129 18.3414 42.0457 16.2581 39.4839 16.2581C36.922 16.2581 34.8387 18.3414 34.8387 20.9032V30.1935C34.8387 31.4745 33.7971 32.5161 32.5161 32.5161C31.2352 32.5161 30.1935 31.4745 30.1935 30.1935V11.6129H60.3871V18.5806H58.0645ZM28.8758 37.1613C29.5466 36.3102 29.9866 35.2833 30.1215 34.1537C30.823 34.5796 31.6372 34.8387 32.5161 34.8387C35.078 34.8387 37.1613 32.7554 37.1613 30.1935V20.9032C37.1613 19.6223 38.2029 18.5806 39.4839 18.5806C40.7648 18.5806 41.8064 19.6223 41.8064 20.9032V37.1613H28.8758ZM27.871 10.4516V26.3604L23.2258 14.4906V9.29032C23.2258 8.00939 24.2675 6.96774 25.5484 6.96774C26.8293 6.96774 27.871 8.00939 27.871 9.29032V10.4516ZM53.4194 9.29032V2.32258H62.7097V9.29032H53.4194ZM51.0968 9.29032H41.8064V2.32258H51.0968V9.29032ZM39.4839 9.29032H30.1935V2.32258H39.4839V9.29032ZM27.871 5.29102C27.1849 4.89125 26.3984 4.64516 25.5484 4.64516C23.1861 4.64516 21.2525 6.42169 20.9622 8.70627L20.8777 8.4891C20.4088 7.29152 19.5956 6.31622 18.5806 5.64598V2.32258H27.871V5.29102ZM16.2581 4.73475C15.9269 4.67975 15.5901 4.64516 15.2465 4.64516H14.9471C12.4408 4.64516 10.231 6.15348 9.31584 8.4891L9.00227 9.29032H6.96774V2.32258H16.2581V4.73475ZM8.09444 11.6129L2.32258 26.3615V11.6129H8.09444ZM39.4839 39.4839V46.4516H30.1935V39.4839H39.4839ZM41.8064 39.4839H42.4523C43.2581 40.8657 44.7397 41.8064 46.4516 41.8064C49.0135 41.8064 51.0968 39.7232 51.0968 37.1613V18.5806C51.0968 17.2997 52.1384 16.2581 53.4194 16.2581C54.7003 16.2581 55.7419 17.2997 55.7419 18.5806V46.4516H41.8064V39.4839ZM58.0645 39.4839H62.7097V46.4516H58.0645V39.4839ZM62.7097 37.1613V30.1935H69.6774V37.1613H62.7097ZM65.0323 27.871V20.9032H69.6774V27.871H65.0323ZM62.7097 18.5806V11.6129H69.6774V18.5806H62.7097ZM4.64516 2.32258V9.29032H2.32258V2.32258H4.64516ZM2.32258 46.4516V38.1661C3.35289 38.9786 4.63495 39.4839 6.04574 39.4839H11.6129V44.129H9.29032V46.4516H2.32258ZM15.0968 69.6774C13.1762 69.6774 11.6129 68.1141 11.6129 66.1936V51.0968H16.2581V48.7742H11.6129V46.4516H18.5806V53.4194H13.9355V55.7419H18.5806V66.1936C18.5806 68.1141 17.0173 69.6774 15.0968 69.6774ZM18.5806 44.129V39.4839H27.871V46.4516H20.9032V44.129H18.5806ZM65.0323 46.4516V39.4839H69.6774V46.4516H65.0323Z" fill="#13203A"/>
</svg>
