<svg width="32" height="32" viewBox="0 0 32 32" fill="none" xmlns="http://www.w3.org/2000/svg">
<g clip-path="url(#clip0)">
<path d="M14.75 31.25H9.75V30.25L14.75 28.5V31.25Z" fill="#74C388"/>
<path d="M20.75 26.5L16 27.75L15 25L19 22.25L20.75 26.5Z" fill="#74C388"/>
<path d="M30 23L26 25L24 18.25L27.25 17.25L30.25 19.5L30 23Z" fill="#74C388"/>
<path d="M15 24.5L10.75 27.5L9.75 26.5L13 22.25L15 24.5Z" fill="#74C388"/>
<path d="M23.75 18.5L19.5 21.5L16.75 17.25L19.75 12.75L23.75 18.5Z" fill="#74C388"/>
<path d="M16.75 5.5L20.5 5.75L22.25 8.75L19.75 12.5L14.5 8.25L16.75 5.5Z" fill="#74C388"/>
<path d="M16.5 17.25L12.75 14.5L10.75 19.25L13.5 21.5L16.5 17.25Z" fill="#74C388"/>
<path d="M12.75 13.75L14.25 8.75L8 6.75V12.5L12.75 13.75Z" fill="#74C388"/>
<path d="M10.75 19L9 23.75H8.25L8 17.75L10.75 19Z" stroke="black"/>
<path d="M7.25 1.5L8 6H0.75L1 2.25L4 0.75L7.25 1.5Z" fill="#74C388"/>
<path d="M8 12.25L0.75 12V16.75L7.75 17.25L8 12.25Z" fill="#74C388"/>
<path d="M20.75 27V31.25H25.75V25.5L20.75 27Z" fill="#74C388"/>
<path d="M7.75 22.5L0.75 22.75V29.25L3.5 31.25H6.25L7.75 28.5V22.5Z" fill="#74C388"/>
<path d="M4.26663 29.8667C5.44476 29.8667 6.39997 28.9115 6.39997 27.7333C6.39997 26.5552 5.44476 25.6 4.26663 25.6C3.08851 25.6 2.1333 26.5552 2.1333 27.7333C2.1333 28.9115 3.08851 29.8667 4.26663 29.8667ZM4.26663 26.6667C4.8557 26.6667 5.3333 27.1443 5.3333 27.7333C5.3333 28.3224 4.8557 28.8 4.26663 28.8C3.67757 28.8 3.19997 28.3224 3.19997 27.7333C3.19997 27.1443 3.67757 26.6667 4.26663 26.6667Z" fill="#13203A"/>
<path d="M4.26663 26.6667C4.8557 26.6667 5.3333 27.1443 5.3333 27.7333C5.3333 28.3224 4.8557 28.8 4.26663 28.8C3.67757 28.8 3.19997 28.3224 3.19997 27.7333C3.19997 27.1443 3.67757 26.6667 4.26663 26.6667Z" fill="#13203A"/>
<path d="M29.7242 23.9597C30.9276 22.7736 31.3164 20.9884 30.7159 19.409C30.1151 17.8298 28.6385 16.7543 26.951 16.667C27.8021 15.4558 27.9622 13.8892 27.374 12.5306L27.369 12.5183C27.3195 12.4048 27.2625 12.2944 27.2031 12.185C27.1935 12.1678 27.1867 12.1504 27.1771 12.1316C26.219 10.4249 24.2208 9.591 22.3339 10.1103C22.8531 8.38918 22.2365 6.5272 20.7922 5.45662C19.3479 4.38605 17.387 4.33709 15.8911 5.33423C15.8417 3.37616 14.4635 1.70376 12.551 1.28084L12.5211 1.27928C10.9276 0.935791 9.27813 1.53345 8.27474 2.81808C7.5724 0.868343 5.56979 -0.294157 3.52865 0.0631346C1.48724 0.420426 -0.00156127 2.1936 1.22873e-06 4.266V27.7327C0.00286582 29.5663 1.17578 31.1933 2.91406 31.7759C2.91953 31.7759 2.92266 31.7824 2.92813 31.784C2.93333 31.7855 2.94401 31.7871 2.95156 31.7897C3.14349 31.8509 3.33958 31.8986 3.53802 31.9321C3.58177 31.9402 3.625 31.9459 3.66875 31.9525C3.86094 31.9814 4.05469 31.997 4.24896 31.9993H27.7333C29.694 31.9986 31.4018 30.6616 31.8732 28.7582C32.3445 26.8551 31.4581 24.8756 29.7242 23.9597ZM29.7867 19.9967C30.2992 21.6876 29.3443 23.4741 27.6534 23.9871L26.1216 24.4512L24.4005 18.7754L25.6229 17.9144L25.7958 17.8613C27.487 17.3483 29.2737 18.3035 29.7867 19.9946V19.9967ZM1.06667 12.266H7.46667V16.5327H1.06667V12.266ZM19.9044 13.8126L23.1161 18.3743L19.6279 20.8277L17.2279 17.4191L17.68 16.809L19.9044 13.8126ZM11.576 19.21L12.049 17.7785L12.9862 14.9428L16.0534 17.217L15.8138 17.5368L13.5109 20.641L11.576 19.21ZM16.5578 18.3241L18.7552 21.4452L15.2667 23.9012L13.8799 21.9332L16.5578 18.3241ZM12.1599 14.0506L10.8214 18.1038L8.53333 17.347V12.8527L12.1599 14.0506ZM9.99349 24.0079L10.9237 21.1918L11.226 20.2772L12.8768 21.5012L12.8 21.6035C12.7862 21.6207 12.7732 21.6384 12.7617 21.6569L10.3318 24.9275L9.8138 24.5433L9.99349 24.0079ZM10.8732 25.9913L12.1792 24.2314L13.2138 22.8371L14.3964 24.5173L10.9078 26.9704L10.5344 26.4436L10.8732 25.9913ZM14.7505 9.61001L19.2305 12.9337L16.6885 16.3605L13.3398 13.8762L14.1701 11.3631L14.7505 9.61001ZM12.4951 13.0379L8.53333 11.7327V7.23657L13.8305 8.98657L12.6682 12.5066L12.4951 13.0379ZM8.53333 22.3993V18.4702L10.4839 19.1144L10.4305 19.2798L9.51511 22.0532L9.14714 23.1668L8.53333 22.9637V22.3993ZM9.46146 25.6095L9.69662 25.784L9.16849 26.4959L9.46146 25.6095ZM9.86511 27.3465L10.0336 27.5861L9.30938 28.0959L9.86511 27.3465ZM15.9135 27.5454L15.2148 25.2426L18.8896 22.6553L19.9872 26.2782C19.9565 26.2949 19.9273 26.3147 19.9003 26.3368L19.2641 26.5301L15.9135 27.5454ZM19.807 22.009L23.481 19.4222L25.0992 24.7611L21.0159 25.9988L19.807 22.009ZM7.46667 6.93267V11.1993H1.06667V6.93267H7.46667ZM1.06667 17.5993H7.46667V21.866H1.06667V17.5993ZM8.53333 24.0874L8.8112 24.179L8.53333 25.0196V24.0874ZM8.94297 29.6584L9.70391 29.1251L9.78828 29.4048L8.94297 29.6584ZM9.06667 30.7358V30.9327H8.41719L9.06667 30.7358ZM10.6224 28.4762L14.2966 25.8894L14.8927 27.8553L10.8096 29.0926L10.6224 28.4762ZM26.0714 12.3806C26.1336 12.4691 26.1911 12.5605 26.2438 12.6548C26.2555 12.6746 26.2641 12.6959 26.2753 12.7163C26.3151 12.7907 26.3542 12.866 26.3878 12.9428C26.3919 12.9525 26.3948 12.9621 26.3984 12.9712C26.643 13.5467 26.713 14.1816 26.6 14.7967C26.5654 14.9889 26.5133 15.1777 26.4443 15.3605C26.4362 15.3811 26.426 15.4014 26.4177 15.4222C26.349 15.5952 26.2651 15.7616 26.1675 15.9199C26.1563 15.9374 26.143 15.954 26.1313 15.9733C26.0284 16.1329 25.9112 16.2827 25.7813 16.4212C25.774 16.4293 25.7648 16.4366 25.7568 16.4446C25.6164 16.591 25.4622 16.7238 25.2966 16.841L23.9883 17.7592L20.575 12.9097L21.4646 11.7103L21.6138 11.6035C23.0599 10.5897 25.0539 10.9374 26.0714 12.3806ZM20.1542 6.31496C21.5737 7.36808 21.8708 9.37251 20.8177 10.7918L19.8646 12.0767L15.1003 8.54334L15.569 7.12459L15.6758 6.9785C16.7302 5.56053 18.7339 5.26366 20.1542 6.31496ZM14.487 4.01209C14.6292 4.29412 14.7292 4.59543 14.7836 4.90662C14.8193 5.11105 14.8346 5.3186 14.8294 5.52616C14.8221 5.84204 14.7682 6.1548 14.6693 6.4548L14.1674 7.97381L8.53333 6.11287V4.61965L8.58985 4.44777C8.65417 4.25558 8.73672 4.06991 8.83568 3.89308C8.84115 3.88319 8.84583 3.87199 8.85182 3.86183C8.94662 3.69751 9.05599 3.54204 9.17865 3.39725C9.19193 3.3811 9.20365 3.36366 9.21771 3.34751C9.34141 3.20688 9.47735 3.07746 9.62396 2.96105C9.64011 2.94855 9.65391 2.93423 9.66979 2.92199C9.82787 2.80037 9.99662 2.69308 10.174 2.60194C10.7292 2.31756 11.3557 2.20194 11.976 2.26964H12.0021C12.0875 2.2798 12.1729 2.29595 12.2586 2.31339C12.2789 2.31782 12.2997 2.31938 12.3201 2.32407C12.4258 2.34751 12.5302 2.37616 12.6331 2.41001C13.4404 2.67485 14.1078 3.25194 14.487 4.01209ZM1.06667 4.266C1.06667 2.49881 2.49948 1.066 4.26667 1.066C6.03412 1.066 7.46667 2.49881 7.46667 4.266V5.866H1.06667V4.266ZM1.06667 27.7327V22.9327H7.46667V23.3652V23.4014V27.7327C7.46589 28.1113 7.3974 28.4866 7.26458 28.841C7.24427 28.8944 7.22344 28.9535 7.2 29.0079C7.17656 29.0624 7.15156 29.1108 7.12578 29.1621C7.10573 29.2025 7.08594 29.2431 7.06458 29.2827C7.03099 29.3423 6.99479 29.3999 6.95781 29.4569C6.94037 29.4853 6.92266 29.5139 6.90443 29.5418C6.86458 29.5999 6.82136 29.6553 6.77761 29.7108C6.74453 29.753 6.7099 29.7936 6.67526 29.8334C6.64063 29.8736 6.60807 29.9097 6.57292 29.9465L6.51953 29.9999C6.50495 30.0142 6.49011 30.0277 6.47526 30.0415C6.43724 30.0777 6.39844 30.1129 6.35886 30.148C6.32917 30.1738 6.29974 30.2014 6.26927 30.2243C6.225 30.2603 6.17865 30.2931 6.13281 30.3269L6.05339 30.3801C5.94922 30.4506 5.84089 30.515 5.72917 30.5728C5.69766 30.5892 5.66511 30.604 5.63255 30.6196L5.61328 30.6282C5.51563 30.6738 5.41563 30.7142 5.31354 30.7493C5.2737 30.7631 5.23412 30.7775 5.19349 30.7897L5.17057 30.7967C5.12526 30.81 5.07891 30.8176 5.0336 30.8288C4.95833 30.8472 4.88333 30.8665 4.80703 30.8819C4.79141 30.8847 4.77604 30.8879 4.7599 30.89L4.71458 30.897L4.69011 30.9001C4.56771 30.9168 4.44453 30.9262 4.32109 30.9285C4.29557 30.9285 4.26771 30.9285 4.24479 30.9285C4.17656 30.9285 4.1099 30.9225 4.04323 30.9183C4.00208 30.915 3.9612 30.9144 3.92005 30.9097C3.86667 30.9038 3.81328 30.8939 3.7599 30.8853C3.70677 30.8767 3.65339 30.8696 3.6 30.8579C3.5599 30.8496 3.5211 30.8371 3.48151 30.8277C3.41667 30.8111 3.35156 30.7946 3.28698 30.7743C1.96641 30.348 1.07005 29.1204 1.06667 27.7327ZM10.1333 30.4126L10.6076 30.2686L14.4 29.1194V30.9327H10.1333V30.4126ZM15.4667 28.7962L15.7125 28.7215L19.7333 27.5022V30.9327H15.4667V28.7962ZM20.8 27.179L21.8544 26.859L25.0667 25.8858V30.9327H20.8V27.179ZM27.7333 30.9327H26.1333V25.5626L27.9622 25.0079C28.2229 24.9285 28.4755 24.8246 28.7169 24.6975C30.2159 25.179 31.1404 26.6811 30.8951 28.2363C30.6497 29.7915 29.3078 30.9358 27.7333 30.9327Z" fill="#13203A"/>
</g>
<defs>
<clipPath id="clip0">
<rect width="32" height="32" fill="white"/>
</clipPath>
</defs>
</svg>
