<svg width="32" height="32" viewBox="0 0 32 32" fill="none" xmlns="http://www.w3.org/2000/svg">
<rect x="28.5" y="9" width="3" height="21.5" fill="#74C388"/>
<path d="M3.5 1V5H3.25H1.75L1.25 4.5L0.75 3.75L0.5 2.5L1 1.5L2.25 1H3.5Z" fill="#74C388"/>
<g clip-path="url(#clip0)">
<path d="M2.5 4.5C1.673 4.5 1 3.827 1 3C1 2.173 1.673 1.5 2.5 1.5C2.7765 1.5 3 1.276 3 1C3 0.724 2.7765 0.5 2.5 0.5C1.1215 0.5 0 1.6215 0 3C0 4.3785 1.1215 5.5 2.5 5.5C2.7765 5.5 3 5.276 3 5C3 4.724 2.7765 4.5 2.5 4.5Z" fill="#13203A"/>
<path d="M31.5 28.5C31.2235 28.5 31 28.7235 31 29C31 29.827 30.327 30.5 29.5 30.5C29.2235 30.5 29 30.7235 29 31C29 31.2765 29.2235 31.5 29.5 31.5C30.8785 31.5 32 30.3785 32 29C32 28.7235 31.7765 28.5 31.5 28.5Z" fill="#13203A"/>
<path d="M29.5 4.5C29.2235 4.5 29 4.724 29 5C29 5.276 29.2235 5.5 29.5 5.5C30.327 5.5 31 6.173 31 7C31 7.827 30.327 8.5 29.5 8.5C29.2235 8.5 29 8.724 29 9C29 9.276 29.2235 9.5 29.5 9.5C30.8785 9.5 32 8.3785 32 7C32 5.6215 30.8785 4.5 29.5 4.5Z" fill="#13203A"/>
<path d="M0.5 2.5C0.2235 2.5 0 2.724 0 3V25.002C0 25.2785 0.2235 25.502 0.5 25.502C0.7765 25.502 1 25.2785 1 25.002V3C1 2.724 0.7765 2.5 0.5 2.5Z" fill="#13203A"/>
<path d="M28.5 26.5H2.5C2.2235 26.5 2 26.7235 2 27C2 27.2765 2.2235 27.5 2.5 27.5H28.5C28.7765 27.5 29 27.2765 29 27C29 26.7235 28.7765 26.5 28.5 26.5Z" fill="#13203A"/>
<path d="M29.5 4.5H2.5C2.2235 4.5 2 4.724 2 5C2 5.276 2.2235 5.5 2.5 5.5H29.5C29.7765 5.5 30 5.276 30 5C30 4.724 29.7765 4.5 29.5 4.5Z" fill="#13203A"/>
<path d="M31.5 6.5C31.2235 6.5 31 6.724 31 7V29C31 29.2765 31.2235 29.5 31.5 29.5C31.7765 29.5 32 29.2765 32 29V7C32 6.724 31.7765 6.5 31.5 6.5Z" fill="#13203A"/>
<path d="M28.5 8.5C28.2235 8.5 28 8.724 28 9V31C28 31.2765 28.2235 31.5 28.5 31.5C28.7765 31.5 29 31.2765 29 31V9C29 8.724 28.7765 8.5 28.5 8.5Z" fill="#13203A"/>
<path d="M3.5 0.5C3.2235 0.5 3 0.724 3 1V5C3 5.276 3.2235 5.5 3.5 5.5C3.7765 5.5 4 5.276 4 5V1C4 0.724 3.7765 0.5 3.5 0.5Z" fill="#13203A"/>
<path d="M2.5 26.502C1.673 26.502 1 25.829 1 25.002C1 24.7255 0.7765 24.502 0.5 24.502C0.2235 24.502 0 24.7255 0 25.002C0 26.3805 1.1215 27.502 2.5 27.502C2.7765 27.502 3 27.2785 3 27.002C3 26.7255 2.7765 26.502 2.5 26.502Z" fill="#13203A"/>
<path d="M29.5 8.5H28.5C28.2235 8.5 28 8.724 28 9C28 9.276 28.2235 9.5 28.5 9.5H29.5C29.7765 9.5 30 9.276 30 9C30 8.724 29.7765 8.5 29.5 8.5Z" fill="#13203A"/>
<path d="M29.5 30.5H28.5C28.2235 30.5 28 30.7235 28 31C28 31.2765 28.2235 31.5 28.5 31.5H29.5C29.7765 31.5 30 31.2765 30 31C30 30.7235 29.7765 30.5 29.5 30.5Z" fill="#13203A"/>
<path d="M3.5 0.5H2.5C2.2235 0.5 2 0.724 2 1C2 1.276 2.2235 1.5 2.5 1.5H3.5C3.7765 1.5 4 1.276 4 1C4 0.724 3.7765 0.5 3.5 0.5Z" fill="#13203A"/>
<path d="M25 28.5H6C5.7235 28.5 5.5 28.7235 5.5 29C5.5 29.2765 5.7235 29.5 6 29.5H25C25.2765 29.5 25.5 29.2765 25.5 29C25.5 28.7235 25.2765 28.5 25 28.5Z" fill="#13203A"/>
<path d="M25 28.5C24.7235 28.5 24.5 28.7235 24.5 29V31C24.5 31.2765 24.7235 31.5 25 31.5C25.2765 31.5 25.5 31.2765 25.5 31V29C25.5 28.7235 25.2765 28.5 25 28.5Z" fill="#13203A"/>
<path d="M25 30.5H6C5.7235 30.5 5.5 30.7235 5.5 31C5.5 31.2765 5.7235 31.5 6 31.5H25C25.2765 31.5 25.5 31.2765 25.5 31C25.5 30.7235 25.2765 30.5 25 30.5Z" fill="#13203A"/>
<path d="M6.22392 30.553L4.22392 29.553C3.97692 29.4305 3.67642 29.5295 3.55292 29.7765C3.42942 30.0235 3.52942 30.324 3.77642 30.4475L5.77642 31.4475C5.84792 31.483 5.92442 31.5 5.99942 31.5C6.18292 31.5 6.35942 31.399 6.44742 31.224C6.57092 30.977 6.47092 30.6765 6.22392 30.553Z" fill="#13203A"/>
<path d="M6.44706 28.776C6.32356 28.529 6.02306 28.43 5.77606 28.5525L3.77606 29.5525C3.52906 29.676 3.42906 29.9765 3.55256 30.2235C3.64056 30.399 3.81706 30.5 4.00056 30.5C4.07556 30.5 4.15206 30.483 4.22356 30.447L6.22356 29.447C6.47056 29.3235 6.57056 29.023 6.44706 28.776Z" fill="#13203A"/>
<path d="M23 28.5C22.7235 28.5 22.5 28.7235 22.5 29V31C22.5 31.2765 22.7235 31.5 23 31.5C23.2765 31.5 23.5 31.2765 23.5 31V29C23.5 28.7235 23.2765 28.5 23 28.5Z" fill="#13203A"/>
<path d="M21 28.5C20.7235 28.5 20.5 28.7235 20.5 29V31C20.5 31.2765 20.7235 31.5 21 31.5C21.2765 31.5 21.5 31.2765 21.5 31V29C21.5 28.7235 21.2765 28.5 21 28.5Z" fill="#13203A"/>
<path d="M29.5 0.5H5.5C5.2235 0.5 5 0.724 5 1V3C5 3.276 5.2235 3.5 5.5 3.5H29.5C29.7765 3.5 30 3.276 30 3V1C30 0.724 29.7765 0.5 29.5 0.5ZM29 2.5H6V1.5H29V2.5Z" fill="#13203A"/>
<path d="M7.5 0.5C7.2235 0.5 7 0.724 7 1V1.5C7 1.776 7.2235 2 7.5 2C7.7765 2 8 1.776 8 1.5V1C8 0.724 7.7765 0.5 7.5 0.5Z" fill="#13203A"/>
<path d="M9.5 0.5C9.2235 0.5 9 0.724 9 1V1.5C9 1.776 9.2235 2 9.5 2C9.7765 2 10 1.776 10 1.5V1C10 0.724 9.7765 0.5 9.5 0.5Z" fill="#13203A"/>
<path d="M11.5 0.5C11.2235 0.5 11 0.724 11 1V1.5C11 1.776 11.2235 2 11.5 2C11.7765 2 12 1.776 12 1.5V1C12 0.724 11.7765 0.5 11.5 0.5Z" fill="#13203A"/>
<path d="M13.5 0.5C13.2235 0.5 13 0.724 13 1V1.5C13 1.776 13.2235 2 13.5 2C13.7765 2 14 1.776 14 1.5V1C14 0.724 13.7765 0.5 13.5 0.5Z" fill="#13203A"/>
<path d="M15.5 0.5C15.2235 0.5 15 0.724 15 1V1.5C15 1.776 15.2235 2 15.5 2C15.7765 2 16 1.776 16 1.5V1C16 0.724 15.7765 0.5 15.5 0.5Z" fill="#13203A"/>
<path d="M17.5 0.5C17.2235 0.5 17 0.724 17 1V1.5C17 1.776 17.2235 2 17.5 2C17.7765 2 18 1.776 18 1.5V1C18 0.724 17.7765 0.5 17.5 0.5Z" fill="#13203A"/>
<path d="M19.5 0.5C19.2235 0.5 19 0.724 19 1V1.5C19 1.776 19.2235 2 19.5 2C19.7765 2 20 1.776 20 1.5V1C20 0.724 19.7765 0.5 19.5 0.5Z" fill="#13203A"/>
<path d="M21.5 0.5C21.2235 0.5 21 0.724 21 1V1.5C21 1.776 21.2235 2 21.5 2C21.7765 2 22 1.776 22 1.5V1C22 0.724 21.7765 0.5 21.5 0.5Z" fill="#13203A"/>
<path d="M23.5 0.5C23.2235 0.5 23 0.724 23 1V1.5C23 1.776 23.2235 2 23.5 2C23.7765 2 24 1.776 24 1.5V1C24 0.724 23.7765 0.5 23.5 0.5Z" fill="#13203A"/>
<path d="M25.5 0.5C25.2235 0.5 25 0.724 25 1V1.5C25 1.776 25.2235 2 25.5 2C25.7765 2 26 1.776 26 1.5V1C26 0.724 25.7765 0.5 25.5 0.5Z" fill="#13203A"/>
<path d="M27.5 0.5C27.2235 0.5 27 0.724 27 1V1.5C27 1.776 27.2235 2 27.5 2C27.7765 2 28 1.776 28 1.5V1C28 0.724 27.7765 0.5 27.5 0.5Z" fill="#13203A"/>
<path d="M14.9355 8.7545C14.8 8.514 14.496 8.428 14.255 8.564L6.25496 13.064C6.01396 13.1995 5.92896 13.5045 6.06446 13.745C6.15646 13.908 6.32546 14 6.50046 14C6.58346 14 6.66746 13.9795 6.74496 13.9355L14.745 9.4355C14.986 9.3 15.071 8.995 14.9355 8.7545Z" fill="#13203A"/>
<path d="M22.7455 13.0645L14.745 8.56451C14.5035 8.42801 14.1995 8.51401 14.064 8.75501C13.929 8.99601 14.0145 9.30051 14.255 9.43601L22.2555 13.936C22.333 13.9795 22.417 14 22.5 14C22.675 14 22.8445 13.908 22.9365 13.7455C23.0715 13.5045 22.986 13.2 22.7455 13.0645Z" fill="#13203A"/>
<path d="M14.9355 10.7545C14.8 10.514 14.496 10.4285 14.255 10.564L6.25496 15.064C6.01396 15.1995 5.92896 15.5045 6.06446 15.745C6.15646 15.908 6.32546 16 6.50046 16C6.58346 16 6.66746 15.9795 6.74496 15.9355L14.745 11.4355C14.986 11.3 15.071 10.995 14.9355 10.7545Z" fill="#13203A"/>
<path d="M22.7455 15.0645L14.745 10.5645C14.5035 10.4285 14.199 10.514 14.064 10.755C13.929 10.996 14.0145 11.3005 14.255 11.436L22.2555 15.936C22.333 15.9795 22.417 16 22.5 16C22.675 16 22.8445 15.908 22.9365 15.7455C23.0715 15.5045 22.986 15.2 22.7455 15.0645Z" fill="#13203A"/>
<path d="M6.5 13C6.2235 13 6 13.224 6 13.5V15.5C6 15.776 6.2235 16 6.5 16C6.7765 16 7 15.776 7 15.5V13.5C7 13.224 6.7765 13 6.5 13Z" fill="#13203A"/>
<path d="M22.5005 13C22.224 13 22.0005 13.224 22.0005 13.5V15.5C22.0005 15.776 22.224 16 22.5005 16C22.777 16 23.0005 15.776 23.0005 15.5V13.5C23.0005 13.224 22.777 13 22.5005 13Z" fill="#13203A"/>
<path d="M8 14.1565C7.7235 14.1565 7.5 14.3805 7.5 14.6565V22.5C7.5 22.7765 7.7235 23 8 23C8.2765 23 8.5 22.7765 8.5 22.5V14.6565C8.5 14.3805 8.2765 14.1565 8 14.1565Z" fill="#13203A"/>
<path d="M21 22H8C7.7235 22 7.5 22.2235 7.5 22.5C7.5 22.7765 7.7235 23 8 23H21C21.2765 23 21.5 22.7765 21.5 22.5C21.5 22.2235 21.2765 22 21 22Z" fill="#13203A"/>
<path d="M21 14.1565C20.7235 14.1565 20.5 14.3805 20.5 14.6565V22.5C20.5 22.7765 20.7235 23 21 23C21.2765 23 21.5 22.7765 21.5 22.5V14.6565C21.5 14.3805 21.2765 14.1565 21 14.1565Z" fill="#13203A"/>
<path d="M16 17H13C12.7235 17 12.5 17.2235 12.5 17.5V22.5C12.5 22.7765 12.7235 23 13 23H16C16.2765 23 16.5 22.7765 16.5 22.5V17.5C16.5 17.2235 16.2765 17 16 17ZM15.5 22H13.5V18H15.5V22Z" fill="#13203A"/>
<path d="M5 15H4C3.7235 15 3.5 15.224 3.5 15.5C3.5 15.776 3.7235 16 4 16H5C5.2765 16 5.5 15.776 5.5 15.5C5.5 15.224 5.2765 15 5 15Z" fill="#13203A"/>
<path d="M5 13H4C3.7235 13 3.5 13.224 3.5 13.5C3.5 13.776 3.7235 14 4 14H5C5.2765 14 5.5 13.776 5.5 13.5C5.5 13.224 5.2765 13 5 13Z" fill="#13203A"/>
<path d="M4.5 13C4.2235 13 4 13.224 4 13.5V15.5C4 15.776 4.2235 16 4.5 16C4.7765 16 5 15.776 5 15.5V13.5C5 13.224 4.7765 13 4.5 13Z" fill="#13203A"/>
<path d="M25 15H24.0005C23.724 15 23.5005 15.224 23.5005 15.5C23.5005 15.776 23.724 16 24.0005 16H25C25.2765 16 25.5 15.776 25.5 15.5C25.5 15.224 25.2765 15 25 15Z" fill="#13203A"/>
<path d="M24.5 15.094C24.2235 15.094 24 15.318 24 15.594V22.5C24 22.7765 24.2235 23 24.5 23C24.7765 23 25 22.7765 25 22.5V15.594C25 15.318 24.7765 15.094 24.5 15.094Z" fill="#13203A"/>
<path d="M25 22H24C23.7235 22 23.5 22.2235 23.5 22.5C23.5 22.7765 23.7235 23 24 23H25C25.2765 23 25.5 22.7765 25.5 22.5C25.5 22.2235 25.2765 22 25 22Z" fill="#13203A"/>
<path d="M8 23.5C7.7235 23.5 7.5 23.7235 7.5 24V25C7.5 25.2765 7.7235 25.5 8 25.5C8.2765 25.5 8.5 25.2765 8.5 25V24C8.5 23.7235 8.2765 23.5 8 23.5Z" fill="#13203A"/>
<path d="M21 23.5C20.7235 23.5 20.5 23.7235 20.5 24V25C20.5 25.2765 20.7235 25.5 21 25.5C21.2765 25.5 21.5 25.2765 21.5 25V24C21.5 23.7235 21.2765 23.5 21 23.5Z" fill="#13203A"/>
<path d="M21 24H8C7.7235 24 7.5 24.2235 7.5 24.5C7.5 24.7765 7.7235 25 8 25H21C21.2765 25 21.5 24.7765 21.5 24.5C21.5 24.2235 21.2765 24 21 24Z" fill="#13203A"/>
<path d="M22.5 7H6.5C6.2235 7 6 7.224 6 7.5C6 7.776 6.2235 8 6.5 8H22.5C22.7765 8 23 7.776 23 7.5C23 7.224 22.7765 7 22.5 7Z" fill="#13203A"/>
<path d="M22.5 6.5C22.2235 6.5 22 6.724 22 7V8C22 8.276 22.2235 8.5 22.5 8.5C22.7765 8.5 23 8.276 23 8V7C23 6.724 22.7765 6.5 22.5 6.5Z" fill="#13203A"/>
<path d="M6.5 6.5C6.2235 6.5 6 6.724 6 7V8C6 8.276 6.2235 8.5 6.5 8.5C6.7765 8.5 7 8.276 7 8V7C7 6.724 6.7765 6.5 6.5 6.5Z" fill="#13203A"/>
</g>
<defs>
<clipPath id="clip0">
<rect width="32" height="32" fill="white"/>
</clipPath>
</defs>
</svg>
