<svg width="32" height="32" viewBox="0 0 32 32" fill="none" xmlns="http://www.w3.org/2000/svg">
<path d="M4.75 27.25H0.75L4 22H7.5L4.75 27.25Z" fill="#74C388"/>
<path d="M26.5 20H24L25.5 23H28.25L26.5 20Z" fill="#74C388"/>
<path d="M27 27L26.25 25.25H30L30.75 27H27Z" fill="#74C388"/>
<path d="M18.5 13.75H13.75V9.5L16 8L18.5 9.5V13.75Z" fill="#74C388"/>
<path d="M31.916 26.9725L26.916 19.4725C26.763 19.243 26.453 19.1805 26.2225 19.334C25.9925 19.4875 25.9305 19.7975 26.084 20.0275L30.566 26.75H1.43398L5.91598 20.028C6.06948 19.798 6.00748 19.488 5.77748 19.3345C5.54648 19.181 5.23648 19.2435 5.08398 19.473L0.0839821 26.973C-0.0180179 27.126 -0.0280179 27.3235 0.0589821 27.486C0.145982 27.6485 0.315482 27.75 0.499982 27.75H31.5C31.6845 27.75 31.854 27.648 31.941 27.4855C32.028 27.323 32.018 27.126 31.916 26.9725Z" fill="#13203A"/>
<path d="M31.5 26.75H0.5C0.2235 26.75 0 26.9735 0 27.25V29.25C0 29.5265 0.2235 29.75 0.5 29.75H31.5C31.7765 29.75 32 29.5265 32 29.25V27.25C32 26.9735 31.7765 26.75 31.5 26.75ZM31 28.75H1V27.75H31V28.75Z" fill="#13203A"/>
<path d="M7.76146 21.2985C7.50946 21.179 7.21296 21.286 7.09496 21.5345L4.47346 27.0345C4.35446 27.284 4.46046 27.5825 4.70946 27.701C4.77946 27.7345 4.85246 27.75 4.92446 27.75C5.11146 27.75 5.29046 27.645 5.37596 27.465L7.99746 21.965C8.11646 21.7155 8.01046 21.417 7.76146 21.2985Z" fill="#13203A"/>
<path d="M10.921 21.7695C10.6585 21.694 10.3785 21.8465 10.303 22.1125L9.58597 24.6125C9.50997 24.8775 9.66347 25.1545 9.92897 25.2305C9.97447 25.2435 10.021 25.25 10.067 25.25C10.284 25.25 10.4845 25.1075 10.547 24.8875L11.264 22.3875C11.34 22.1225 11.1865 21.8455 10.921 21.7695Z" fill="#13203A"/>
<path d="M27.5265 27.035L26.5725 25.034C26.4545 24.7855 26.158 24.6785 25.906 24.798C25.657 24.9165 25.551 25.215 25.67 25.4645L26.624 27.4655C26.7095 27.645 26.8885 27.75 27.0755 27.75C27.1475 27.75 27.2205 27.7345 27.2905 27.7015C27.5395 27.583 27.6455 27.2845 27.5265 27.035Z" fill="#13203A"/>
<path d="M25.6185 23.0325L23.9515 19.535C23.833 19.2865 23.5365 19.1795 23.285 19.299C23.036 19.4175 22.93 19.716 23.049 19.9655L24.716 23.463C24.8015 23.6425 24.9805 23.7475 25.1675 23.7475C25.2395 23.7475 25.3125 23.732 25.3825 23.699C25.6315 23.5805 25.7375 23.282 25.6185 23.0325Z" fill="#13203A"/>
<path d="M22.4139 24.6125L21.6969 22.1125C21.6209 21.846 21.3419 21.694 21.0789 21.7695C20.8129 21.8455 20.6599 22.1225 20.7359 22.3875L21.4529 24.8875C21.5159 25.1075 21.7154 25.25 21.9329 25.25C21.9789 25.25 22.0254 25.2435 22.0709 25.2305C22.3369 25.1545 22.4899 24.8775 22.4139 24.6125Z" fill="#13203A"/>
<path d="M7.54697 21.25H4.16647C3.88997 21.25 3.66647 21.4735 3.66647 21.75C3.66647 22.0265 3.88997 22.25 4.16647 22.25H7.54697C7.82297 22.25 8.04697 22.0265 8.04697 21.75C8.04697 21.4735 7.82347 21.25 7.54697 21.25Z" fill="#13203A"/>
<path d="M30.1665 24.75H26.122C25.8455 24.75 25.622 24.9735 25.622 25.25C25.622 25.5265 25.8455 25.75 26.122 25.75H30.1665C30.443 25.75 30.6665 25.5265 30.6665 25.25C30.6665 24.9735 30.443 24.75 30.1665 24.75Z" fill="#13203A"/>
<path d="M28.8334 22.75H25.1684C24.8919 22.75 24.6684 22.9735 24.6684 23.25C24.6684 23.5265 24.8919 23.75 25.1684 23.75H28.8334C29.1099 23.75 29.3334 23.5265 29.3334 23.25C29.3334 22.9735 29.1099 22.75 28.8334 22.75Z" fill="#13203A"/>
<path d="M15 21.75H10.783C10.5065 21.75 10.283 21.9735 10.283 22.25C10.283 22.5265 10.5065 22.75 10.783 22.75H15C15.2765 22.75 15.5 22.5265 15.5 22.25C15.5 21.9735 15.2765 21.75 15 21.75Z" fill="#13203A"/>
<path d="M21.217 21.75H17.0465C16.77 21.75 16.5465 21.9735 16.5465 22.25C16.5465 22.5265 16.77 22.75 17.0465 22.75H21.217C21.493 22.75 21.717 22.5265 21.717 22.25C21.717 21.9735 21.4935 21.75 21.217 21.75Z" fill="#13203A"/>
<path d="M21.9335 24.25H10.0665C9.79003 24.25 9.56653 24.4735 9.56653 24.75C9.56653 25.0265 9.79003 25.25 10.0665 25.25H21.9335C22.21 25.25 22.4335 25.0265 22.4335 24.75C22.4335 24.4735 22.21 24.25 21.9335 24.25Z" fill="#13203A"/>
<path d="M16 2.25C11.589 2.25 8 5.839 8 10.25C8 16.8295 15.3575 23.3515 15.6705 23.626C15.7645 23.7085 15.8825 23.75 16 23.75C16.1175 23.75 16.2355 23.7085 16.3295 23.626C16.6425 23.3515 24 16.8295 24 10.25C24 5.839 20.411 2.25 16 2.25ZM16 22.5705C14.572 21.222 9 15.617 9 10.25C9 6.39 12.14 3.25 16 3.25C19.86 3.25 23 6.39 23 10.25C23 15.617 17.428 21.2225 16 22.5705Z" fill="#13203A"/>
<path d="M12.7135 19.25H5.5C5.2235 19.25 5 19.4735 5 19.75C5 20.0265 5.2235 20.25 5.5 20.25H12.7135C12.9895 20.25 13.2135 20.0265 13.2135 19.75C13.2135 19.4735 12.99 19.25 12.7135 19.25Z" fill="#13203A"/>
<path d="M26.5 19.25H19.286C19.0095 19.25 18.786 19.4735 18.786 19.75C18.786 20.0265 19.0095 20.25 19.286 20.25H26.5C26.7765 20.25 27 20.0265 27 19.75C27 19.4735 26.7765 19.25 26.5 19.25Z" fill="#13203A"/>
<path d="M19 13.25H13C12.7235 13.25 12.5 13.474 12.5 13.75C12.5 14.026 12.7235 14.25 13 14.25H19C19.2765 14.25 19.5 14.026 19.5 13.75C19.5 13.474 19.2765 13.25 19 13.25Z" fill="#13203A"/>
<path d="M13.5 7.25C13.2235 7.25 13 7.474 13 7.75V13.75C13 14.026 13.2235 14.25 13.5 14.25C13.7765 14.25 14 14.026 14 13.75V7.75C14 7.474 13.7765 7.25 13.5 7.25Z" fill="#13203A"/>
<path d="M18.5 9.0355C18.2235 9.0355 18 9.2595 18 9.5355V13.75C18 14.026 18.2235 14.25 18.5 14.25C18.7765 14.25 19 14.026 19 13.75V9.5355C19 9.2595 18.7765 9.0355 18.5 9.0355Z" fill="#13203A"/>
<path d="M16.407 7.4595C16.246 7.2345 15.9335 7.183 15.7095 7.343L12.2095 9.843C11.985 10.0035 11.933 10.316 12.0935 10.5405C12.191 10.677 12.344 10.75 12.5005 10.75C12.601 10.75 12.7025 10.7195 12.791 10.657L16.291 8.157C16.5155 7.9965 16.5675 7.684 16.407 7.4595Z" fill="#13203A"/>
<path d="M19.791 9.84303L16.291 7.34303C16.0665 7.18303 15.754 7.23503 15.5935 7.45953C15.4325 7.68403 15.485 7.99653 15.7095 8.15703L19.2095 10.657C19.2975 10.7195 19.399 10.75 19.4995 10.75C19.656 10.75 19.809 10.677 19.907 10.5405C20.068 10.316 20.0155 10.0035 19.791 9.84303Z" fill="#13203A"/>
<path d="M16 11.75C15.7235 11.75 15.5 11.974 15.5 12.25V13.75C15.5 14.026 15.7235 14.25 16 14.25C16.2765 14.25 16.5 14.026 16.5 13.75V12.25C16.5 11.974 16.2765 11.75 16 11.75Z" fill="#13203A"/>
</svg>
