<svg width="72" height="72" viewBox="0 0 72 72" fill="none" xmlns="http://www.w3.org/2000/svg">
<g clip-path="url(#clip0)">
<rect x="45" y="41.625" width="23.625" height="23.625" rx="2" fill="#74C388"/>
<path d="M46.125 39.375L45.5625 43.3125L47.25 44.4375C53.0625 45.375 64.9125 47.25 65.8125 47.25C66.7125 47.25 67.3125 43.5 67.5 41.625L66.9375 38.8125L65.25 36C64.3125 36.75 62.325 38.3625 61.875 38.8125C61.425 39.2625 57.9375 40.125 56.25 40.5L54 38.8125L54.5625 37.125L57.9375 35.4375L63 33.1875L62.4375 32.0625L59.625 28.6875L57.9375 27.5625L56.25 27L54 28.125L52.875 29.25L47.25 37.6875L46.125 39.375Z" fill="#74C388"/>
<path d="M57.8563 59.7525H49.9267C49.4034 59.7525 48.9793 60.1766 48.9793 60.6999C48.9793 61.2231 49.4034 61.6473 49.9267 61.6473H57.8563C58.3795 61.6473 58.8037 61.2231 58.8037 60.6999C58.8037 60.1766 58.3795 59.7525 57.8563 59.7525Z" fill="#13203A"/>
<path d="M49.9267 58.1232H55.2131C55.7363 58.1232 56.1605 57.6991 56.1605 57.1758C56.1605 56.6526 55.7363 56.2284 55.2131 56.2284H49.9267C49.4034 56.2284 48.9793 56.6526 48.9793 57.1758C48.9793 57.6991 49.4034 58.1232 49.9267 58.1232Z" fill="#13203A"/>
<path d="M57.8563 52.7036H49.9267C49.4034 52.7036 48.9793 53.1278 48.9793 53.651C48.9793 54.1743 49.4034 54.5984 49.9267 54.5984H57.8563C58.3795 54.5984 58.8037 54.1743 58.8037 53.651C58.8037 53.1278 58.3795 52.7036 57.8563 52.7036Z" fill="#13203A"/>
<path d="M68.951 42.1633C68.958 40.5173 68.4391 38.9122 67.4698 37.5818L66.3926 36.1251C71.6972 31.1731 73.431 23.4793 70.7629 16.7308C68.095 9.98222 61.5689 5.55393 54.312 5.568C47.8651 5.54859 41.925 9.06084 38.8351 14.719C34.2868 14.2252 29.6969 15.1471 25.6922 17.3591C22.6509 19.185 20.9766 21.6052 20.9521 24.1824C20.952 24.1898 20.9479 24.196 20.9479 24.2035V24.2398C20.9479 24.2544 20.9445 24.2687 20.9447 24.2835C20.9448 24.2963 20.9478 24.3088 20.9479 24.3216V28.006L18.4365 29.5129C18.2533 29.6232 18.1125 29.7919 18.0373 29.9922L17.4206 31.632L13.546 31.7245C13.0465 31.7363 12.642 32.1342 12.6222 32.6335L12.545 34.5616L8.16708 34.6657C7.66758 34.6775 7.26314 35.0753 7.24331 35.5747L7.15402 37.7984L2.46291 37.9178C2.29936 37.9223 2.13975 37.9687 1.99941 38.0529L0.459563 38.977C0.167485 39.1522 -0.0080152 39.4709 0.000281678 39.8115L0.115875 44.6612V48.5821L0.113625 48.5922C0.113485 48.597 0.116016 48.6011 0.115875 48.6059V48.6227C0.120516 48.6538 0.126704 48.6847 0.134579 48.7151C0.139641 48.806 0.157782 48.8957 0.188297 48.9815C0.208969 49.0201 0.232313 49.0573 0.258329 49.0924C0.293063 49.1602 0.335813 49.2236 0.385594 49.2813C0.428485 49.3184 0.47475 49.3516 0.523547 49.3804C0.572063 49.4209 0.624516 49.4562 0.680203 49.486C0.748829 49.5106 0.819985 49.5272 0.892407 49.5355C0.937969 49.5502 0.984797 49.561 1.03205 49.5682L1.05764 49.5689L1.06298 49.57L1.06692 49.5691L9.29644 49.8151H9.30727L9.32105 49.8179C9.33314 49.8179 9.34327 49.8114 9.35522 49.811C9.45337 49.8069 9.55027 49.7874 9.64223 49.7531C9.67345 49.7417 9.70411 49.7286 9.73392 49.7137C9.75966 49.7013 9.78764 49.6949 9.81225 49.6801L31.6524 36.5757C32.7036 36.7226 33.7636 36.7976 34.8251 36.8C37.1948 36.8011 39.5512 36.4467 41.8157 35.7487C42.856 36.7967 44.0267 37.707 45.299 38.4569C44.6839 39.5954 44.3611 40.8689 44.3599 42.1631V62.8673C44.2828 64.7512 45.7414 66.3437 47.6248 66.432H65.6868C67.5699 66.3433 69.0279 64.7509 68.9508 62.8673V42.1633H68.951ZM38.7776 20.4195C39.044 18.93 39.5284 17.4879 40.2154 16.1398C43.0958 10.4207 49.1452 7.00786 55.5296 7.50004C61.9141 7.99209 67.3689 12.2917 69.339 18.3847C71.3088 24.4776 69.4036 31.1568 64.5157 35.2936C62.8125 36.7498 60.8153 37.8212 58.6603 38.435C57.5619 38.7516 56.4315 38.9449 55.2902 39.0113C54.9436 38.5401 54.87 37.9215 55.0966 37.3822C62.751 36.9562 68.6753 30.5146 68.4606 22.8514C68.2459 15.1882 61.9699 9.0884 54.3036 9.09192C49.3207 9.10978 44.7092 11.73 42.1432 16.0015C41.2951 17.4116 40.7036 18.9608 40.3965 20.5775C40.2681 21.2564 40.1922 21.9441 40.169 22.6347C39.6505 22.8477 39.0938 22.9522 38.5332 22.9417C38.5435 22.0954 38.6252 21.2518 38.7776 20.4195ZM46.2168 16.8863C45.6401 16.5581 45.0409 16.2711 44.4236 16.0275C47.1171 12.329 51.6476 10.4401 56.1708 11.1301C60.694 11.8202 64.4553 14.9738 65.9236 19.3073C67.3919 23.6408 66.3221 28.4314 63.1499 31.7287L60.5095 28.1539C59.6212 26.9042 58.1885 26.1548 56.6553 26.1379H56.6543C55.1211 26.1554 53.6888 26.9052 52.801 28.1552L48.4575 34.0381C47.9724 33.7726 47.5061 33.4742 47.0617 33.1448C49.0372 31.8213 50.3021 29.6699 50.498 27.3L50.4991 27.2944V23.3699L50.501 23.3537C50.5762 20.8271 49.0544 18.5298 46.2168 16.8863ZM8.37394 47.8912L2.01066 47.7011V45.6352L8.37394 45.8263V47.8912ZM9.072 43.9506L1.989 43.7387L1.90758 40.3174L2.76061 39.8058L8.08959 39.6698C8.58867 39.6569 8.99198 39.2592 9.01195 38.7604L9.10125 36.5387L13.4792 36.4346C13.9787 36.4228 14.3831 36.025 14.403 35.5256L14.4802 33.5975L18.1055 33.511C18.4918 33.5019 18.8338 33.259 18.9696 32.8972L19.695 30.9678L23.0991 28.9251C23.7416 29.5506 24.4596 30.0934 25.2367 30.5409C25.3057 30.581 25.3815 30.615 25.4516 30.6542L7.43583 41.4638C6.98723 41.7331 6.84183 42.315 7.11113 42.7636C7.38042 43.2122 7.96233 43.3576 8.41092 43.0883L27.5396 31.6108C27.9807 31.7744 28.4373 31.9193 28.9045 32.0509L9.072 43.9506ZM30.4923 35.0623L10.2687 47.1964V45.4428L30.4924 33.3081V35.0623H30.4923ZM26.1885 28.9029C24.0562 27.6657 22.8714 26.0337 22.8426 24.3044V24.2309C22.8472 22.353 24.2371 20.443 26.6667 18.9842C30.1137 17.1014 34.0314 16.2548 37.9482 16.5463C37.5567 17.505 37.2518 18.4969 37.0374 19.51C36.713 19.6163 36.4002 19.7552 36.1039 19.9245C35.2606 20.3558 34.7108 21.2037 34.6611 22.1495C34.707 23.0325 35.2218 23.8237 36.0104 24.2233C36.4369 24.467 36.9024 24.6351 37.3861 24.7201C37.7895 24.8031 38.2002 24.8447 38.612 24.8442C39.6214 24.8561 40.616 24.6006 41.4948 24.1036L41.5901 24.0412C42.3657 23.624 42.8757 22.8408 42.9436 21.9628C42.9563 21.4017 42.7518 20.8573 42.3728 20.4433C42.5977 19.4779 42.9414 18.5442 43.3959 17.6632C44.0416 17.8981 44.6667 18.1861 45.2649 18.5243C47.4601 19.7957 48.6433 21.478 48.6056 23.3254L48.6048 23.3296V23.3829C48.5253 25.2167 47.1741 27.013 44.7986 28.4402C44.1536 28.823 43.4817 29.1588 42.7882 29.445C41.7337 29.8735 40.6441 30.2101 39.5317 30.4516C39.5141 30.4538 39.4965 30.4571 39.4799 30.4609C34.6916 31.485 29.599 30.8887 26.1885 28.9029ZM36.6867 21.8698C36.6746 22.0279 36.6732 22.1907 36.6652 22.3507C36.6051 22.2944 36.5666 22.2188 36.5559 22.1371C36.5687 22.036 36.6147 21.9419 36.6867 21.8698ZM41.7734 33.7872C38.7525 34.7896 35.5494 35.1216 32.3871 34.7602V32.7128C33.1996 32.799 34.0161 32.8428 34.8332 32.844C36.5113 32.8443 38.1848 32.6701 39.8268 32.3242C39.8481 32.3213 39.8685 32.3173 39.8888 32.313C41.1258 32.0471 42.337 31.6738 43.509 31.1973C44.2887 30.8757 45.044 30.498 45.7691 30.0673C46.7979 29.465 47.7325 28.7146 48.5429 27.8402C48.2683 29.4523 47.0237 31.0163 44.916 32.3302C44.8855 32.3528 44.8578 32.3686 44.7976 32.406C43.8405 32.9707 42.8269 33.4337 41.7734 33.7872ZM43.7846 35.025C44.3271 34.7899 44.8577 34.5237 45.3784 34.2331C45.9879 34.7342 46.6383 35.1832 47.323 35.5753L46.3583 36.8818C45.4382 36.354 44.5757 35.7316 43.7846 35.025ZM65.6871 64.5374H47.625C46.7902 64.446 46.1815 63.7041 46.2549 62.8675V42.1633C46.2493 40.9123 46.6442 39.6923 47.3818 38.6818L54.3251 29.2817C54.8439 28.5017 55.7186 28.033 56.6554 28.0327C57.5923 28.0324 58.467 28.501 58.9861 29.2807L61.7304 32.9966C60.6981 33.7916 59.5434 34.4133 58.3116 34.8377C56.9212 34.1206 55.2272 34.3792 54.1142 35.4785C53.9843 35.6087 53.866 35.7502 53.7608 35.9014C52.7061 37.3241 52.8583 39.3059 54.118 40.5509C54.1659 40.6005 54.2166 40.6473 54.2697 40.6915C54.9224 41.2786 55.7695 41.603 56.6474 41.6019C57.6098 41.6012 58.5323 41.2166 59.2102 40.5333C59.3304 40.4069 59.4422 40.2727 59.5448 40.1317C61.4931 39.5277 63.3201 38.5863 64.9429 37.3504L65.9481 38.7097C66.6757 39.7136 67.0639 40.9234 67.0563 42.1633V62.8675C67.1296 63.7038 66.5214 64.4454 65.6871 64.5374Z" fill="#13203A"/>
</g>
<defs>
<clipPath id="clip0">
<rect width="72" height="72" fill="white"/>
</clipPath>
</defs>
</svg>
