<svg width="245" height="412" viewBox="0 0 245 412" fill="none" xmlns="http://www.w3.org/2000/svg">
<path fill-rule="evenodd" clip-rule="evenodd" d="M72.8959 69.6532C72.8959 69.6532 72.4063 63.5317 77.3033 62.2273C82.1997 60.9228 120.493 49.9844 120.493 49.9844C120.493 49.9844 125.88 48.3789 126.565 53.9986C127.251 59.6178 133.421 105.177 133.421 105.177C133.421 105.177 134.106 109.493 129.307 110.797C124.509 112.101 85.334 123.241 85.334 123.241C85.334 123.241 80.1432 124.344 79.6535 120.029C79.1639 115.714 72.8959 69.6532 72.8959 69.6532Z" stroke="#74C388" stroke-width="4"/>
<path fill-rule="evenodd" clip-rule="evenodd" d="M13.602 264.413C13.602 264.413 13.4876 263.125 14.6331 262.85C15.7793 262.576 24.7418 260.273 24.7418 260.273C24.7418 260.273 26.0024 259.934 26.1629 261.117C26.3233 262.301 27.7674 271.892 27.7674 271.892C27.7674 271.892 27.9279 272.801 26.8047 273.075C25.6815 273.35 16.5133 275.695 16.5133 275.695C16.5133 275.695 15.298 275.928 15.1836 275.019C15.0692 274.11 13.602 264.413 13.602 264.413Z" stroke="#74C388" stroke-width="4"/>
<path fill-rule="evenodd" clip-rule="evenodd" d="M169.546 353.814C169.546 353.814 169.318 351.237 171.609 350.688C173.901 350.139 191.826 345.533 191.826 345.533C191.826 345.533 194.347 344.856 194.668 347.222C194.989 349.589 197.877 368.772 197.877 368.772C197.877 368.772 198.198 370.589 195.952 371.138C193.705 371.687 175.369 376.377 175.369 376.377C175.369 376.377 172.938 376.842 172.709 375.025C172.481 373.208 169.546 353.814 169.546 353.814Z" stroke="#13203A" stroke-width="4"/>
<path fill-rule="evenodd" clip-rule="evenodd" d="M13.6098 176.053C13.6098 176.053 13.2146 171.758 17.1742 170.843C21.1314 169.928 52.0926 162.25 52.0926 162.25C52.0926 162.25 56.4475 161.123 57.0018 165.069C57.5561 169.01 62.5448 200.982 62.5448 200.982C62.5448 200.982 63.0991 204.011 59.219 204.926C55.3389 205.841 23.6668 213.658 23.6668 213.658C23.6668 213.658 19.4685 214.434 19.0733 211.405C18.6781 208.377 13.6098 176.053 13.6098 176.053Z" stroke="#13203A" stroke-width="4"/>
<path fill-rule="evenodd" clip-rule="evenodd" d="M17.4868 333.671C17.4868 333.671 16.7068 324.973 24.5218 323.12C32.332 321.266 93.4397 305.72 93.4397 305.72C93.4397 305.72 102.035 303.437 103.129 311.427C104.223 319.409 114.069 384.152 114.069 384.152C114.069 384.152 115.163 390.284 107.505 392.138C99.8468 393.991 37.336 409.82 37.336 409.82C37.336 409.82 29.05 411.391 28.2699 405.258C27.4899 399.125 17.4868 333.671 17.4868 333.671Z" stroke="#13203A" stroke-width="4"/>
<path fill-rule="evenodd" clip-rule="evenodd" d="M134.754 287.091C134.754 287.091 134.359 282.796 138.319 281.881C142.276 280.966 173.237 273.288 173.237 273.288C173.237 273.288 177.592 272.161 178.146 276.107C178.7 280.048 183.689 312.02 183.689 312.02C183.689 312.02 184.243 315.049 180.363 315.964C176.483 316.879 144.811 324.696 144.811 324.696C144.811 324.696 140.613 325.472 140.218 322.443C139.822 319.415 134.754 287.091 134.754 287.091Z" stroke="#74C388" stroke-width="4"/>
<path fill-rule="evenodd" clip-rule="evenodd" d="M38.0774 67.3646C38.0774 67.3646 38.3694 70.6941 35.452 71.4034C32.5345 72.1126 9.72155 78.0618 9.72155 78.0618C9.72155 78.0618 6.51286 78.9348 6.10399 75.8783C5.69581 72.8225 2.02014 48.0442 2.02014 48.0442C2.02014 48.0442 1.61196 45.6977 4.47059 44.9884C7.32922 44.2785 30.668 38.2207 30.668 38.2207C30.668 38.2207 33.7598 37.6201 34.0517 39.9673C34.3437 42.3138 38.0774 67.3646 38.0774 67.3646Z" stroke="#74C388" stroke-width="4"/>
<path fill-rule="evenodd" clip-rule="evenodd" d="M84.4781 13.3082C84.4781 13.3082 84.5925 14.5968 83.447 14.8713C82.3008 15.1459 73.3384 17.4491 73.3384 17.4491C73.3384 17.4491 72.0777 17.7867 71.9173 16.6036C71.7568 15.4211 70.3127 5.82943 70.3127 5.82943C70.3127 5.82943 70.1523 4.92086 71.2755 4.64631C72.3986 4.37175 81.5669 2.02672 81.5669 2.02672C81.5669 2.02672 82.7822 1.79394 82.8966 2.70251C83.011 3.61107 84.4781 13.3082 84.4781 13.3082Z" stroke="#13203A" stroke-width="4"/>
<path fill-rule="evenodd" clip-rule="evenodd" d="M114.12 173.41C114.12 173.41 114.234 174.698 113.088 174.973C111.943 175.247 102.98 177.55 102.98 177.55C102.98 177.55 101.719 177.888 101.559 176.705C101.399 175.522 99.9545 165.931 99.9545 165.931C99.9545 165.931 99.794 165.022 100.917 164.748C102.04 164.473 111.209 162.128 111.209 162.128C111.209 162.128 112.424 161.895 112.538 162.804C112.653 163.712 114.12 173.41 114.12 173.41Z" stroke="#74C388" stroke-width="4"/>
<path fill-rule="evenodd" clip-rule="evenodd" d="M111.542 266.372C111.542 266.372 111.657 267.66 110.511 267.935C109.365 268.209 100.403 270.512 100.403 270.512C100.403 270.512 99.1419 270.85 98.9815 269.667C98.821 268.484 97.3769 258.893 97.3769 258.893C97.3769 258.893 97.2165 257.984 98.3397 257.71C99.4629 257.435 108.631 255.09 108.631 255.09C108.631 255.09 109.846 254.857 109.961 255.766C110.075 256.674 111.542 266.372 111.542 266.372Z" stroke="#13203A" stroke-width="4"/>
<path fill-rule="evenodd" clip-rule="evenodd" d="M242.997 356.751C242.997 356.751 243.111 358.04 241.966 358.314C240.819 358.589 231.857 360.892 231.857 360.892C231.857 360.892 230.596 361.23 230.436 360.047C230.276 358.864 228.831 349.272 228.831 349.272C228.831 349.272 228.671 348.364 229.794 348.089C230.917 347.815 240.086 345.47 240.086 345.47C240.086 345.47 241.301 345.237 241.415 346.146C241.53 347.054 242.997 356.751 242.997 356.751Z" stroke="#74C388" stroke-width="4"/>
</svg>
