<svg width="188" height="318" viewBox="0 0 188 318" fill="none" xmlns="http://www.w3.org/2000/svg">
<path fill-rule="evenodd" clip-rule="evenodd" d="M132.989 53.3981C132.989 53.3981 133.369 48.657 129.57 47.6467C125.77 46.6364 96.0573 38.1644 96.0573 38.1644C96.0573 38.1644 91.8776 36.9209 91.3457 41.2735C90.8138 45.6256 86.0263 80.9118 86.0263 80.9118C86.0263 80.9118 85.4944 84.2541 89.2181 85.2644C92.9414 86.2747 123.338 94.9021 123.338 94.9021C123.338 94.9021 127.366 95.757 127.746 92.4147C128.126 89.0729 132.989 53.3981 132.989 53.3981Z" stroke="#74C388" stroke-width="2"/>
<path fill-rule="evenodd" clip-rule="evenodd" d="M178.998 204.242C178.998 204.242 179.086 203.244 178.197 203.031C177.308 202.819 170.354 201.035 170.354 201.035C170.354 201.035 169.376 200.773 169.251 201.689C169.127 202.605 168.006 210.034 168.006 210.034C168.006 210.034 167.882 210.738 168.753 210.95C169.625 211.163 176.739 212.979 176.739 212.979C176.739 212.979 177.682 213.16 177.77 212.456C177.859 211.752 178.998 204.242 178.998 204.242Z" stroke="#74C388" stroke-width="2"/>
<path fill-rule="evenodd" clip-rule="evenodd" d="M57.9951 273.484C57.9951 273.484 58.1726 271.488 56.395 271.062C54.6162 270.637 40.7077 267.069 40.7077 267.069C40.7077 267.069 38.7514 266.545 38.5024 268.378C38.2534 270.211 36.0123 285.068 36.0123 285.068C36.0123 285.068 35.7633 286.476 37.5063 286.901C39.2494 287.326 53.4773 290.959 53.4773 290.959C53.4773 290.959 55.3632 291.319 55.5408 289.912C55.7183 288.504 57.9951 273.484 57.9951 273.484Z" stroke="white" stroke-width="2"/>
<path fill-rule="evenodd" clip-rule="evenodd" d="M178.992 135.806C178.992 135.806 179.298 132.479 176.226 131.771C173.155 131.062 149.131 125.115 149.131 125.115C149.131 125.115 145.752 124.242 145.322 127.298C144.892 130.351 141.021 155.114 141.021 155.114C141.021 155.114 140.591 157.459 143.602 158.168C146.613 158.877 171.188 164.931 171.188 164.931C171.188 164.931 174.446 165.532 174.752 163.186C175.059 160.841 178.992 135.806 178.992 135.806Z" stroke="white" stroke-width="2"/>
<path fill-rule="evenodd" clip-rule="evenodd" d="M175.983 257.882C175.983 257.882 176.588 251.146 170.525 249.71C164.464 248.275 117.049 236.234 117.049 236.234C117.049 236.234 110.38 234.466 109.531 240.654C108.682 246.836 101.042 296.98 101.042 296.98C101.042 296.98 100.193 301.73 106.135 303.165C112.077 304.601 160.582 316.86 160.582 316.86C160.582 316.86 167.011 318.077 167.616 313.327C168.221 308.577 175.983 257.882 175.983 257.882Z" stroke="white" stroke-width="2"/>
<path fill-rule="evenodd" clip-rule="evenodd" d="M84.9915 221.806C84.9915 221.806 85.2982 218.479 82.2258 217.771C79.1553 217.062 55.1314 211.115 55.1314 211.115C55.1314 211.115 51.7523 210.242 51.3222 213.298C50.8921 216.351 47.0212 241.114 47.0212 241.114C47.0212 241.114 46.5911 243.459 49.6018 244.168C52.6125 244.877 77.188 250.931 77.188 250.931C77.188 250.931 80.4456 251.532 80.7522 249.186C81.0589 246.841 84.9915 221.806 84.9915 221.806Z" stroke="#74C388" stroke-width="2"/>
<path fill-rule="evenodd" clip-rule="evenodd" d="M160.006 51.6255C160.006 51.6255 159.78 54.2043 162.043 54.7536C164.307 55.303 182.009 59.9106 182.009 59.9106C182.009 59.9106 184.498 60.5868 184.816 58.2195C185.132 55.8528 187.984 36.6617 187.984 36.6617C187.984 36.6617 188.301 34.8443 186.083 34.295C183.865 33.7452 165.756 29.0533 165.756 29.0533C165.756 29.0533 163.357 28.5882 163.13 30.4061C162.903 32.2235 160.006 51.6255 160.006 51.6255Z" stroke="#74C388" stroke-width="2"/>
<path fill-rule="evenodd" clip-rule="evenodd" d="M124.002 9.7583C124.002 9.7583 123.914 10.7563 124.803 10.969C125.692 11.1816 132.646 12.9655 132.646 12.9655C132.646 12.9655 133.624 13.2269 133.749 12.3106C133.873 11.3948 134.994 3.96593 134.994 3.96593C134.994 3.96593 135.118 3.26224 134.247 3.04959C133.375 2.83694 126.261 1.02069 126.261 1.02069C126.261 1.02069 125.318 0.840405 125.23 1.5441C125.141 2.24779 124.002 9.7583 124.002 9.7583Z" stroke="white" stroke-width="2"/>
<path fill-rule="evenodd" clip-rule="evenodd" d="M101.002 133.758C101.002 133.758 100.914 134.756 101.803 134.969C102.692 135.182 109.646 136.965 109.646 136.965C109.646 136.965 110.624 137.227 110.749 136.311C110.873 135.395 111.994 127.966 111.994 127.966C111.994 127.966 112.118 127.262 111.247 127.05C110.375 126.837 103.261 125.021 103.261 125.021C103.261 125.021 102.318 124.84 102.23 125.544C102.141 126.248 101.002 133.758 101.002 133.758Z" stroke="white" stroke-width="2"/>
<path fill-rule="evenodd" clip-rule="evenodd" d="M103.002 205.758C103.002 205.758 102.914 206.756 103.803 206.969C104.692 207.182 111.646 208.965 111.646 208.965C111.646 208.965 112.624 209.227 112.749 208.311C112.873 207.395 113.994 199.966 113.994 199.966C113.994 199.966 114.118 199.262 113.247 199.05C112.375 198.837 105.261 197.021 105.261 197.021C105.261 197.021 104.318 196.84 104.23 197.544C104.141 198.248 103.002 205.758 103.002 205.758Z" stroke="white" stroke-width="2"/>
<path fill-rule="evenodd" clip-rule="evenodd" d="M1.00246 275.758C1.00246 275.758 0.913695 276.756 1.80252 276.969C2.6919 277.182 9.64616 278.965 9.64616 278.965C9.64616 278.965 10.6243 279.227 10.7488 278.311C10.8733 277.395 11.9939 269.966 11.9939 269.966C11.9939 269.966 12.1184 269.262 11.2468 269.05C10.3753 268.837 3.26137 267.021 3.26137 267.021C3.26137 267.021 2.31838 266.84 2.22961 267.544C2.14084 268.248 1.00246 275.758 1.00246 275.758Z" stroke="white" stroke-width="2"/>
</svg>
