<svg xmlns="http://www.w3.org/2000/svg" xmlns:xlink="http://www.w3.org/1999/xlink" width="150" height="150" viewBox="0 0 150 150">
    <defs>
        <path id="a" d="M138.981 88.061c-5.154 8.972-13.885 16.759-25.01 22.283-11.117 5.526-24.603 8.785-39.145 8.783-9.257 0-18.084-1.321-26.148-3.707a2.68 2.68 0 0 0-2.27.356l-19.605 13.389 4.544-18.972a2.674 2.674 0 0 0-1.208-2.91c-7.668-4.686-13.883-10.53-18.157-17.084-4.274-6.56-6.622-13.804-6.625-21.458.002-6.83 1.874-13.332 5.314-19.318C15.824 40.45 24.556 32.665 35.68 27.14c11.118-5.528 24.603-8.785 39.146-8.783 19.39-.006 36.9 5.797 49.429 15.02 6.267 4.609 11.287 10.063 14.726 16.045 3.44 5.986 5.311 12.487 5.314 19.318-.003 6.833-1.874 13.334-5.314 19.32m4.644-41.31c-5.797-10.072-15.363-18.49-27.27-24.409-11.91-5.916-26.187-9.34-41.529-9.342-20.455.006-39.02 6.08-52.603 16.063C15.433 34.057 9.888 40.037 6.025 46.75 2.164 53.462-.003 60.921 0 68.741c-.003 8.766 2.719 17.07 7.496 24.384 4.451 6.824 10.692 12.796 18.2 17.665l-5.72 23.877a2.676 2.676 0 0 0 1.086 2.83c.911.63 2.115.631 3.03.007L48.404 120.9c8.226 2.31 17.123 3.584 26.422 3.584 20.455-.005 39.02-6.081 52.603-16.062 6.788-4.994 12.334-10.975 16.196-17.69 3.863-6.71 6.029-14.17 6.027-21.99.002-7.821-2.164-15.28-6.027-21.99"/>
    </defs>
    <g fill="none" fill-rule="evenodd">
        <mask id="b" fill="#fff">
            <use xlink:href="#a"/>
        </mask>
        <use fill="#74C388" xlink:href="#a"/>
        <g fill="#74C388" fill-rule="nonzero" mask="url(#b)">
            <path d="M0 1h150v149H0z"/>
        </g>
    </g>
</svg>
