<svg xmlns="http://www.w3.org/2000/svg" xmlns:xlink="http://www.w3.org/1999/xlink" width="150" height="150" viewBox="0 0 150 150">
    <defs>
        <path id="a" d="M0 .778h90.911v90.929H0z"/>
        <path id="c" d="M.583.45h92.03V82H.583z"/>
    </defs>
    <g fill="none" fill-rule="evenodd">
        <g transform="translate(20 20.223)">
            <mask id="b" fill="#fff">
                <use xlink:href="#a"/>
            </mask>
            <path fill="#74C388" d="M6.101 85.606l2.834-6.128 3.294 3.293-6.127 2.835zm75.305-80l4.676 4.678-70.084 70.084-4.676-4.677L81.406 5.606zm8.92 6.092a2 2 0 0 0 0-2.828L82.82 1.364a2 2 0 0 0-2.828 0L7.079 74.277c-.22.22-.372.48-.467.756-.034.055-.075.105-.104.165L.186 88.867a2 2 0 1 0 2.655 2.655l13.668-6.323c.087-.04.163-.098.241-.15.245-.1.47-.246.663-.438l72.913-72.913z" mask="url(#b)"/>
        </g>
        <g transform="translate(37 47.223)">
            <mask id="d" fill="#fff">
                <use xlink:href="#c"/>
            </mask>
            <path fill="#74C388" d="M88.583 75.002a2.98 2.98 0 0 1-.88 2.12 2.981 2.981 0 0 1-2.12.878H7.593c-.968-.008-1.648-.362-2.18-.92a3.163 3.163 0 0 1-.83-2.123c.01-.809.289-1.557 1.047-2.226l24.486-21.197 5.198 6.238a1.501 1.501 0 0 0 2.305-1.92l-5.234-6.282 5.448-4.716 5.464 6.025a1.5 1.5 0 0 0 2.223-2.016l-5.418-5.973 5.713-4.947 5.424 5.995a1.5 1.5 0 0 0 2.224-2.014l-5.38-5.944 6.006-5.199 5.044 6.16a1.5 1.5 0 1 0 2.32-1.9l-5.095-6.225 5.45-4.716 5.308 5.95a1.499 1.499 0 1 0 2.238-1.998l-5.278-5.917L83.65 5.19c.62-.532 1.266-.735 1.934-.74a3.116 3.116 0 0 1 2.112.841c.559.537.91 1.231.917 2.171l-.03 67.54zm1.854-72.624A7.105 7.105 0 0 0 85.584.45a6.912 6.912 0 0 0-4.553 1.718l-78.02 67.54C1.369 71.12.572 73.09.584 74.957A7.147 7.147 0 0 0 2.48 79.8C3.694 81.121 5.52 82.01 7.593 82h77.99a7 7 0 0 0 7-6.996l.03-67.54a6.918 6.918 0 0 0-2.176-5.086z" mask="url(#d)"/>
        </g>
        <path fill="#74C388" d="M106.9 108.037a1.001 1.001 0 0 1-1 .999H81.876c-.36-.008-.538-.114-.72-.297a1.103 1.103 0 0 1-.286-.73c.011-.272.074-.476.351-.728l.001-.001 24.031-20.804.001-.001c.23-.191.415-.244.637-.25.25-.001.531.11.718.289.185.186.292.377.298.72l-.009 20.803zm-1.008-25.811a4.958 4.958 0 0 0-3.257 1.227l.001-.001-24.03 20.805v-.001a4.938 4.938 0 0 0-1.735 3.754 5.086 5.086 0 0 0 1.352 3.449 4.943 4.943 0 0 0 3.654 1.577H105.9a5 5 0 0 0 5-4.997l.01-20.804a4.955 4.955 0 0 0-1.558-3.634 5.063 5.063 0 0 0-3.459-1.375z"/>
    </g>
</svg>
