<svg xmlns="http://www.w3.org/2000/svg" width="150" height="150" viewBox="0 0 150 150">
    <g fill="none" fill-rule="evenodd">
        <path fill="#74C388" d="M16.666 21.834v121.04a4.121 4.121 0 0 0 4.116 4.115h94.908V25.95a4.12 4.12 0 0 0-4.116-4.116H16.666zm100.2 126.331H20.782a5.299 5.299 0 0 1-5.292-5.292V20.658h96.084a5.298 5.298 0 0 1 5.292 5.292v122.215z"/>
        <path stroke="#74C388" stroke-width="3" d="M16.666 21.834v121.04a4.121 4.121 0 0 0 4.116 4.115h94.908V25.95a4.12 4.12 0 0 0-4.116-4.116H16.666zm100.2 126.331H20.782a5.299 5.299 0 0 1-5.292-5.292V20.658h96.084a5.298 5.298 0 0 1 5.292 5.292v122.215z"/>
        <path fill="#74C388" d="M95.834 50.602H33.036a.589.589 0 0 1 0-1.176h62.798a.587.587 0 1 1 0 1.176"/>
        <path stroke="#74C388" stroke-width="3" d="M95.834 50.602H33.036a.589.589 0 0 1 0-1.176h62.798a.587.587 0 1 1 0 1.176z"/>
        <path fill="#74C388" d="M95.834 63.65H33.036a.589.589 0 0 1 0-1.177h62.798a.587.587 0 1 1 0 1.176"/>
        <path stroke="#74C388" stroke-width="3" d="M95.834 63.65H33.036a.589.589 0 0 1 0-1.177h62.798a.587.587 0 1 1 0 1.176z"/>
        <path fill="#74C388" d="M95.834 76.696H33.036a.588.588 0 0 1 0-1.176h62.798a.587.587 0 1 1 0 1.176"/>
        <path stroke="#74C388" stroke-width="3" d="M95.834 76.696H33.036a.588.588 0 0 1 0-1.176h62.798a.587.587 0 1 1 0 1.176z"/>
        <path fill="#74C388" d="M76.96 89.744H33.036a.588.588 0 0 1 0-1.176H76.96a.587.587 0 1 1 0 1.176"/>
        <path stroke="#74C388" stroke-width="3" d="M76.96 89.744H33.036a.588.588 0 0 1 0-1.176H76.96a.587.587 0 1 1 0 1.176z"/>
        <path fill="#74C388" d="M95.834 112.929h-37.75a.588.588 0 0 1 0-1.176h37.75a.587.587 0 1 1 0 1.176"/>
        <path stroke="#74C388" stroke-width="3" d="M95.834 112.929h-37.75a.588.588 0 0 1 0-1.176h37.75a.587.587 0 1 1 0 1.176z"/>
        <path fill="#FFF" d="M134.668 20.292c0 9.831-7.97 17.801-17.802 17.801-9.831 0-17.802-7.97-17.802-17.801 0-9.832 7.97-17.802 17.802-17.802 9.831 0 17.802 7.97 17.802 17.802"/>
        <path stroke="#74C388" stroke-width="5" d="M134.668 20.292c0 9.831-7.97 17.801-17.802 17.801-9.831 0-17.802-7.97-17.802-17.801 0-9.832 7.97-17.802 17.802-17.802 9.831 0 17.802 7.97 17.802 17.802z"/>
        <path fill="#74C388" d="M124.291 14.764l-10.25 10.2-4.472-4.56a1.658 1.658 0 0 0-2.35-.018l-.128.126a1.658 1.658 0 0 0-.012 2.346l6.796 6.859 12.752-12.598a1.658 1.658 0 1 0-2.336-2.355"/>
    </g>
</svg>
