<svg xmlns="http://www.w3.org/2000/svg" xmlns:xlink="http://www.w3.org/1999/xlink" width="150" height="150" viewBox="0 0 150 150">
    <defs>
        <path id="a" d="M147.024 88.13a1.5 1.5 0 0 1-1.5 1.5h-13.149a1.5 1.5 0 0 1-1.5-1.5V31.477a1.5 1.5 0 0 1 1.5-1.5h13.149a1.5 1.5 0 0 1 1.5 1.5v56.655zm-19.125-9.353c0 .551-.303 1.058-.789 1.32l-10.62 5.732a1.498 1.498 0 0 1-1.759-.246l-21.37-20.82c-.437-.427-1.091-1.124-.642-1.931.469-.844 1.078-.644 1.689-.644h2.098a1.49 1.49 0 0 0 1.488-1.49 1.49 1.49 0 0 0-1.488-1.487H76.872a1.48 1.48 0 0 0-.732.193L51.746 73.185a6.12 6.12 0 0 1-3.005.792 6.148 6.148 0 0 1-4.397-1.865c-2.316-2.395-2.273-6.25.096-8.595l22.624-22.385a24.08 24.08 0 0 1 17.042-7.005h42.292a1.5 1.5 0 0 1 1.5 1.5v43.15zm-8.683 15.333a5.379 5.379 0 0 1 1.642 3.81 5.38 5.38 0 0 1-1.532 3.854 5.372 5.372 0 0 1-3.887 1.64 5.396 5.396 0 0 1-3.777-1.53l-9.88-9.602-.062-.058-9.76-9.485a1.48 1.48 0 0 0-1.036-.42c-.407 0-.786.159-1.068.45a1.48 1.48 0 0 0-.421 1.06c.005.396.166.767.45 1.045l15.51 15.072a5.426 5.426 0 0 1 .11 7.664 5.376 5.376 0 0 1-3.887 1.642 5.392 5.392 0 0 1-3.777-1.531L82.348 92.664l-.065-.056-.049-.045-7.452-7.242a1.48 1.48 0 0 0-1.037-.421 1.49 1.49 0 0 0-1.037 2.555l15.509 15.073a5.383 5.383 0 0 1 1.64 3.81 5.385 5.385 0 0 1-1.53 3.854 5.384 5.384 0 0 1-3.804 1.642h-.098a5.376 5.376 0 0 1-3.762-1.533l-4.344-4.221-.156-.128-.085-.068-.077-.067-.064-.057a8.016 8.016 0 0 0-5.625-1.8l-.103.003a1.5 1.5 0 0 1-1.487-1.313 7.97 7.97 0 0 0-2.845-5.176 8.003 8.003 0 0 0-5.621-1.803l-.103.004a1.5 1.5 0 0 1-1.487-1.313 7.964 7.964 0 0 0-2.85-5.176 7.888 7.888 0 0 0-5.625-1.805l-.103.002a1.5 1.5 0 0 1-1.487-1.312 7.967 7.967 0 0 0-2.844-5.172 7.894 7.894 0 0 0-5.076-1.827c-.26 0-.524.013-.785.038a7.95 7.95 0 0 0-5.408 2.878l-2.431 2.95c-.167.204-.328.42-.478.644a1.5 1.5 0 0 1-2.101.4 15.74 15.74 0 0 0-6.142-2.53 1.5 1.5 0 0 1-1.236-1.476V37.263a1.5 1.5 0 0 1 1.5-1.5h11.32c.095 0 .19-.01.285-.027l24.423-4.767a37.987 37.987 0 0 1 12.931-.292c.658.099 2.91.75 4.316 1.593 0 0-3.316.985-3.923 1.258a27.154 27.154 0 0 0-7.981 5.488L42.346 61.402c-3.523 3.485-3.586 9.217-.143 12.78a9.142 9.142 0 0 0 6.54 2.771 9.104 9.104 0 0 0 4.466-1.176l23.71-13.395a1.5 1.5 0 0 1 .738-.194h8.186c.39 0 .766.153 1.047.425l32.326 31.497zm-44.487 21.027l-2.43 2.95a4.996 4.996 0 0 1-3.892 1.832 5.028 5.028 0 0 1-3.187-1.148 5.035 5.035 0 0 1-.684-7.08l2.43-2.949a4.985 4.985 0 0 1 3.395-1.807 5.038 5.038 0 0 1 3.685 1.122 4.998 4.998 0 0 1 1.808 3.398 4.994 4.994 0 0 1-1.125 3.682zm-12.49-5.338a4.99 4.99 0 0 1-3.396 1.808 5.031 5.031 0 0 1-5.491-4.521 4.996 4.996 0 0 1 1.124-3.681l2.43-2.95a5.035 5.035 0 0 1 7.079-.683 4.992 4.992 0 0 1 1.807 3.396 4.993 4.993 0 0 1-1.123 3.68l-2.43 2.95zm-10.06-8.287a5.03 5.03 0 0 1-8.887-2.714 4.996 4.996 0 0 1 1.124-3.68l2.43-2.95a4.99 4.99 0 0 1 3.397-1.808 5.028 5.028 0 0 1 3.681 1.123 4.994 4.994 0 0 1 1.81 3.398 4.999 4.999 0 0 1-1.125 3.68l-2.43 2.951zm-10.06-8.287a5.034 5.034 0 0 1-7.079.684 4.996 4.996 0 0 1-1.806-3.397 4.993 4.993 0 0 1 1.122-3.682l2.43-2.95a4.99 4.99 0 0 1 3.397-1.807 5.03 5.03 0 0 1 4.366 8.202l-2.43 2.95zm-22.994-5.094a1.5 1.5 0 0 1-1.5 1.5H4.476a1.5 1.5 0 0 1-1.5-1.5V31.476a1.5 1.5 0 0 1 1.5-1.5h13.149a1.5 1.5 0 0 1 1.5 1.5v56.655zM148.512 27h-16.137a4.467 4.467 0 0 0-4.262 3.11 1.52 1.52 0 0 1-1.453 1.04H82.97c-.287-.12-.36-.136-.47-.194-5.379-2.44-9.675-3.677-15.523-3.677-2.638 0-5.302.258-7.918.77l-24.139 4.71c-.094.019-.19.027-.287.027H22.125c0-1.736-.208-3.372-1.39-4.52A4.44 4.44 0 0 0 17.626 27H1.488C.666 27 0 27.666 0 28.488v62.63c0 .823.666 1.49 1.488 1.49h16.137A4.476 4.476 0 0 0 22.1 88.13v-.001c0-.345.024-1.391.024-1.391.338-.339 1.054-.235 1.5-.188.135.014.248.066.382.102a12.553 12.553 0 0 1 4.314 2.165l1.396 1.08c.324.252.527.625.574 1.034a7.958 7.958 0 0 0 2.857 5.275 8.013 8.013 0 0 0 5.08 1.823c.158 0 .33-.007.543-.022l.1-.003a1.5 1.5 0 0 1 1.487 1.313 7.97 7.97 0 0 0 2.85 5.176 8.01 8.01 0 0 0 5.082 1.822c.16 0 .331-.006.54-.02l.102-.004a1.5 1.5 0 0 1 1.487 1.313 7.962 7.962 0 0 0 2.85 5.176 7.895 7.895 0 0 0 5.624 1.806l.104-.003c.75 0 1.392.558 1.487 1.311a7.97 7.97 0 0 0 2.845 5.173 7.893 7.893 0 0 0 5.073 1.828c.258 0 .523-.013.787-.038a7.952 7.952 0 0 0 5.408-2.878l2.43-2.95a7.94 7.94 0 0 0 1.347-2.36c.133-.37.4-.683.752-.859a1.508 1.508 0 0 1 1.373.02c1.201.642 2.563.98 3.94.98h.123a8.34 8.34 0 0 0 5.902-2.545 8.327 8.327 0 0 0 1.815-2.843c.145-.38.428-.698.8-.863a1.5 1.5 0 0 1 1.659.293l1.03 1.003a8.352 8.352 0 0 0 5.85 2.37c2.292 0 4.43-.902 6.023-2.54a8.297 8.297 0 0 0 1.969-3.282 1.502 1.502 0 0 1 1.429-1.045 1.5 1.5 0 0 1 .666.156 8.447 8.447 0 0 0 3.734.874c2.292 0 4.43-.902 6.023-2.54a8.341 8.341 0 0 0 2.374-5.971 8.336 8.336 0 0 0-2.543-5.9l-2.076-2.023a1.5 1.5 0 0 1 .334-2.395l5.576-3.01 2.76-1.593v2.469l.012.18v2.525a4.477 4.477 0 0 0 4.476 4.476h16.137c.822 0 1.488-.666 1.488-1.488v-62.63c0-.823-.666-1.489-1.488-1.489z"/>
    </defs>
    <g fill="none" fill-rule="evenodd">
        <mask id="b" fill="#fff">
            <use xlink:href="#a"/>
        </mask>
        <use fill="#74C388" xlink:href="#a"/>
        <g fill="#74C388" fill-rule="nonzero" mask="url(#b)">
            <path d="M0 0h150v150H0z"/>
        </g>
    </g>
</svg>
