<svg xmlns="http://www.w3.org/2000/svg" xmlns:xlink="http://www.w3.org/1999/xlink" width="150" height="150" viewBox="0 0 150 150">
    <defs>
        <path id="a" d="M0 .482h149.654v115.79H0z"/>
    </defs>
    <g fill="none" fill-rule="evenodd">
        <g transform="translate(0 16.406)">
            <mask id="b" fill="#fff">
                <use xlink:href="#a"/>
            </mask>
            <path fill="#74C388" d="M5.72 82.518l.025.282.056.66.8.505c2.744 1.732 6.466 3.254 11.003 4.606 13.599 4.041 34.568 6.501 57.222 6.505 15.1 0 29.46-1.099 41.379-3.024 5.96-.962 11.308-2.131 15.844-3.481 4.537-1.352 8.26-2.875 11.004-4.607l-.002.002.241-.152.56-.354.08-.944c.01-.097.013-.197.021-.294.359.52.681 1.04.933 1.553.647 1.32.955 2.609.957 3.91-.002 1.546-.43 3.065-1.299 4.597-1.514 2.676-4.427 5.351-8.538 7.786-6.162 3.66-14.965 6.778-25.467 8.957-10.504 2.183-22.709 3.437-35.713 3.437-19.813.002-37.78-2.918-50.681-7.576-6.448-2.325-11.625-5.09-15.108-8.061-1.743-1.484-3.06-3.014-3.928-4.543-.868-1.532-1.297-3.05-1.298-4.597 0-1.301.31-2.59.956-3.91.252-.513.574-1.033.933-1.553.008.098.013.199.02.296zm36.262-45.756a1.903 1.903 0 0 0 2.345 1.34 1.908 1.908 0 0 0 1.333-2.338v.002l-5.575-20.581-.001-.005a.97.97 0 0 1 .676-1.186l14.361-3.938v38.267a1.906 1.906 0 0 0 3.812 0V5.258c0-.268.105-.501.283-.68a.953.953 0 0 1 .682-.285h29.236c.28 0 .526.111.715.298.187.189.298.434.298.716v43.016a1.906 1.906 0 0 0 3.811 0V10.056l14.362 3.938a.97.97 0 0 1 .674 1.193l-.004.014-5.572 21.144a1.905 1.905 0 0 0 1.352 2.335l.018.006a1.907 1.907 0 0 0 2.313-1.362l4.068-15.434c16.678 11.134 27.47 29.427 29.02 49.427.131 1.71.199 3.44.199 5.14 0 .341-.006.686-.013 1.04v.006a68.185 68.185 0 0 1-.17 3.72c-2.39 1.366-5.681 2.675-9.695 3.843-13.05 3.811-33.557 6.204-55.684 6.2-14.754 0-28.778-1.058-40.362-2.897-5.792-.92-10.973-2.035-15.32-3.303-4.014-1.168-7.306-2.477-9.695-3.842a68.185 68.185 0 0 1-.183-4.767c0-1.7.067-3.43.2-5.14 1.531-19.784 12.157-37.967 28.57-49.123l3.946 14.568zM148.074 81.64c-.916-1.711-2.231-3.343-3.878-4.908 0-.093.003-.18.003-.274 0-1.799-.07-3.627-.211-5.433-1.677-21.612-13.526-41.312-31.796-53.018l.482-1.83-.002.012a4.781 4.781 0 0 0-3.344-5.869l-15.37-4.215v-.797A4.829 4.829 0 0 0 89.134.482H59.898a4.78 4.78 0 0 0-4.777 4.777v.845l-15.37 4.215a4.783 4.783 0 0 0-3.343 5.869l.577 2.127c-17.989 11.737-29.66 31.32-31.32 52.709a70.504 70.504 0 0 0-.21 5.433c0 .094.002.182.003.274-1.647 1.565-2.963 3.197-3.88 4.908C.542 83.574-.002 85.614 0 87.685c-.002 2.08.549 4.124 1.582 6.055 1.552 2.9 4.163 5.564 7.692 8 3.532 2.436 7.998 4.65 13.335 6.602 14.042 5.133 32.546 7.928 52.217 7.93 19.672-.002 38.178-2.797 52.219-7.93 7.114-2.606 12.684-5.665 16.552-9.114 1.933-1.725 3.441-3.555 4.475-5.488 1.033-1.931 1.583-3.974 1.582-6.055.002-2.071-.542-4.111-1.58-6.046z" mask="url(#b)"/>
        </g>
        <path fill="#74C388" d="M6.603 100.372l-.002-.001v-.001l.002.002zM103.416 52.76l.002-.01-.002.01zM104.79 55.092h-.002.001zM44.33 54.507h-.004l-.004.001.008-.001zM36.408 32.593l-.001-.004zM12.992 81.217l.003-.01v-.002z"/>
        <path fill="#74C388" d="M12.952 81.58c0 .762.52 1.435 1.288 1.613l.075.017.148.017.071.008h.074c.762 0 1.438-.523 1.615-1.293 1.868-8.314 6.189-20.21 16.044-29.714l.005-.005a1.655 1.655 0 0 0 .04-2.333l-.002-.002a1.656 1.656 0 0 0-2.34-.043l-.002.002c-10.489 10.127-15.01 22.647-16.973 31.36-.03.13-.043.255-.043.373zM12.035 86.307l.001-.006v.006z"/>
        <path fill="#74C388" d="M13.978 84.928v-.005l-.044-.006c-.007-.001-.014-.005-.021-.005v.002a1.651 1.651 0 0 0-1.877 1.393c-.672 4.433-.704 7.495-.704 8.045v.091a1.657 1.657 0 0 0 1.655 1.635h.03a1.66 1.66 0 0 0 1.625-1.66v-.064c0-.417.023-3.313.666-7.557l.002-.012v-.003a1.673 1.673 0 0 0-.378-1.307 1.66 1.66 0 0 0-.954-.547M11.332 94.453v-.011z"/>
    </g>
</svg>
