<svg xmlns="http://www.w3.org/2000/svg" xmlns:xlink="http://www.w3.org/1999/xlink" width="150" height="150" viewBox="0 0 150 150">
    <defs>
        <path id="a" d="M135.956 70.212c-.406.88-1.174 1.376-2.11 1.385h-14.568v66.33a3.135 3.135 0 0 1-.925 2.227 3.13 3.13 0 0 1-2.225.924H94.712V100.38a5.358 5.358 0 0 0-5.353-5.353H60.13a5.357 5.357 0 0 0-5.353 5.353v40.697H33.361a3.134 3.134 0 0 1-2.226-.924 3.13 3.13 0 0 1-.924-2.226V71.597H15.643c-.937-.01-1.705-.504-2.11-1.384a2.28 2.28 0 0 1-.21-.934c.004-.488.166-.938.538-1.363l.145-.155L72.517 9.25a3.118 3.118 0 0 1 2.228-.923 3.115 3.115 0 0 1 2.227.923l58.509 58.51.147.155c.372.425.534.876.537 1.364 0 .294-.063.606-.209.932m3.081-4.937l-.058-.115-.392-.415-.015-.014L80.033 6.19A7.437 7.437 0 0 0 74.745 4a7.438 7.438 0 0 0-5.289 2.19l-58.54 58.54-.256.272-.015.015-.014.016A6.384 6.384 0 0 0 9 69.29c0 .91.195 1.828.583 2.693a6.597 6.597 0 0 0 6.06 3.943h10.239v62.002a7.485 7.485 0 0 0 7.479 7.478h25.744V100.38a1.022 1.022 0 0 1 1.025-1.024h29.229c.284 0 .532.112.723.3.189.192.301.439.301.724v45.025h25.745a7.485 7.485 0 0 0 7.478-7.478V75.926h10.24a6.6 6.6 0 0 0 6.06-3.942 6.59 6.59 0 0 0 .583-2.694c.002-1.445-.513-2.858-1.452-4.015"/>
    </defs>
    <g fill="none" fill-rule="evenodd">
        <mask id="b" fill="#fff">
            <use xlink:href="#a"/>
        </mask>
        <use fill="#74C388" xlink:href="#a"/>
        <g fill="#74C388" fill-rule="nonzero" mask="url(#b)">
            <path d="M0 0h150v150H0z"/>
        </g>
    </g>
</svg>
