<svg xmlns="http://www.w3.org/2000/svg" xmlns:xlink="http://www.w3.org/1999/xlink" width="150" height="150" viewBox="0 0 150 150">
    <defs>
        <path id="a" d="M0 .465h96.465v96.37H0z"/>
    </defs>
    <g fill="none" fill-rule="evenodd">
        <path fill="#74C388" d="M75.209 25.36c6.554 0 11.887 5.332 11.887 11.887 0 6.554-5.333 11.887-11.887 11.887-6.555 0-11.887-5.333-11.887-11.887 0-6.555 5.332-11.887 11.887-11.887m0 25.967c7.764 0 14.08-6.317 14.08-14.08s-6.316-14.08-14.08-14.08-14.08 6.317-14.08 14.08 6.316 14.08 14.08 14.08"/>
        <path fill="#74C388" d="M70.898 20.719a17.718 17.718 0 0 1 8.571-.005c1.893.505 3.608 1.263 5.102 2.26a16.948 16.948 0 0 1 7.353 10.798 16.96 16.96 0 0 1-2.448 12.845 17.62 17.62 0 0 1-1.067 1.465c-2.631 3.234-6.401 5.387-10.593 6.061a18.943 18.943 0 0 1-5.233.002 17.077 17.077 0 0 1-13.97-12.627c-2.344-9.129 3.17-18.46 12.285-20.8m1.367 35.596c.967.136 1.942.203 2.92.203.984 0 1.97-.068 2.956-.206 4.749-.763 9.001-3.195 11.972-6.85l.005-.006c.477-.596.87-1.136 1.196-1.642a19.127 19.127 0 0 0 2.757-14.487 19.123 19.123 0 0 0-8.29-12.181c-1.688-1.124-3.621-1.983-5.763-2.554a19.982 19.982 0 0 0-9.659.002c-10.292 2.64-16.514 13.17-13.87 23.471a19.272 19.272 0 0 0 15.776 14.25"/>
        <path fill="#74C388" d="M75.209 41.17a3.923 3.923 0 1 0-.003-7.847 3.923 3.923 0 0 0 .003 7.847M77.805 14.006V0h-5.193v14.006a10.68 10.68 0 0 1 5.193 0"/>
        <g transform="translate(27 52.9)">
            <mask id="b" fill="#fff">
                <use xlink:href="#a"/>
            </mask>
            <path fill="#74C388" d="M77.789 86.297l-2.402 8.075a.35.35 0 0 1-.288.256.356.356 0 0 1-.357-.143l-4.985-6.75-6.457-36.45a68.456 68.456 0 0 0 7.917-2.267l6.572 37.279zm-44.67-35.02l-6.412 36.37-.066.156-4.966 6.692a.349.349 0 0 1-.357.141.351.351 0 0 1-.287-.255l-2.38-8-.009-.17 6.561-37.214c.64.226 1.285.436 1.932.644.017.007.035.011.053.017a68.142 68.142 0 0 0 5.666 1.556c.089.02.176.044.264.064zm-6.742-8.792L33.223 3.64l.255.2c.314.245.63.488.927.685.416.29.845.558 1.348.845.352.234.697.436 1.028.6.427.214.883.427 1.34.64l.167.078c.14.055.27.117.4.18.179.085.359.169.554.246.409.158.816.288 1.224.417.109.034.218.067.334.105l-6.568 37.32-7.89-2.331.005-.01.03-.131zM55.62 7.625l.096-.033a31.01 31.01 0 0 0 1.42-.494c.292-.091.543-.212.767-.318l.227-.107.08-.037a30.67 30.67 0 0 0 1.47-.721l.224-.123c.242-.13.49-.267.725-.42.432-.248.896-.543 1.366-.867.314-.21.593-.418.873-.637.122-.088.242-.176.356-.265l6.847 38.85.028.126c.002.006.006.01.008.018l-7.892 2.356-6.595-37.328zm40.844 24.52a2.572 2.572 0 0 0-.752-1.844l-1.63-1.63a2.55 2.55 0 0 0-3.59-.024A59.993 59.993 0 0 1 72 40.759L65.059 1.37a1.098 1.098 0 0 0-1.787-.647l-.317.27c-.476.402-.887.75-1.4 1.119-.27.211-.51.39-.792.58-.443.306-.863.572-1.25.793l-.066.04c-.188.126-.391.234-.586.34l-.23.125c-.45.24-.9.45-1.39.68a7.42 7.42 0 0 0-.281.13c-.179.086-.347.167-.495.21l-.084.029c-.443.172-.902.322-1.352.47l-.382.128-.222.081-.203.069a1.099 1.099 0 0 0-.927 1.276l6.597 37.342a62.475 62.475 0 0 1-23.337 0l6.567-37.31a1.096 1.096 0 0 0-.78-1.244l-.233-.083a4.062 4.062 0 0 0-.37-.13 50.906 50.906 0 0 0-.612-.198 16.8 16.8 0 0 1-1.086-.368c-.143-.056-.278-.122-.414-.185-.17-.08-.34-.16-.465-.21l-.111-.051a57.884 57.884 0 0 1-1.293-.617 7.63 7.63 0 0 1-.819-.483l-.069-.042c-.457-.26-.844-.502-1.232-.77-.269-.18-.54-.39-.816-.606-.435-.336-.838-.672-1.241-1.008l-.403-.335a1.12 1.12 0 0 0-1.041-.198 1.1 1.1 0 0 0-.75.856l-6.938 39.363a61.307 61.307 0 0 1-18.5-12.121 2.548 2.548 0 0 0-3.578.033l-.78.781s-.389.369-.812.779a2.58 2.58 0 0 0-.78 1.85c.002.7.28 1.349.783 1.828a68.469 68.469 0 0 0 22.333 14.28l-6.633 37.615a2.57 2.57 0 0 0 .068 1.173v.001l2.379 8.001a2.547 2.547 0 0 0 2.459 1.83c.801 0 1.558-.375 2.048-1.035l4.965-6.692c.235-.316.397-.691.465-1.08l6.399-36.297a69.34 69.34 0 0 0 25.889.01l6.488 36.628c.03.166.098.323.198.46l5.138 6.958a2.545 2.545 0 0 0 2.501 1 2.542 2.542 0 0 0 2.01-1.791l2.476-8.323a1.1 1.1 0 0 0 .027-.503l-6.686-37.932a68.46 68.46 0 0 0 22.376-14.286 2.517 2.517 0 0 0 .783-1.808z" mask="url(#b)"/>
        </g>
    </g>
</svg>
