<svg xmlns="http://www.w3.org/2000/svg" xmlns:xlink="http://www.w3.org/1999/xlink" width="150" height="150" viewBox="0 0 150 150">
    <defs>
        <path id="a" d="M0 .581h58.68v51.628H0z"/>
        <path id="c" d="M0 149.419h123.418V.949H0z"/>
    </defs>
    <g fill="none" fill-rule="evenodd" transform="translate(13)">
        <g transform="translate(0 .368)">
            <mask id="b" fill="#fff">
                <use xlink:href="#a"/>
            </mask>
            <path fill="#74C388" d="M28.791 48.412H3.797V23.419h.432c.094.115.173.237.28.344l18.369 18.541 5.913-5.841v11.949zm0-24.993v.602l-5.467 5.44-5.925-6.042H28.79zM51.037 1.885L32.589 20.242v-.62H13.676l-2.44-2.49a4.482 4.482 0 0 0-6.353-.048l-.342.338a4.453 4.453 0 0 0-1.21 2.2H0v32.587h32.589V32.712l24.76-24.46a4.482 4.482 0 1 0-6.311-6.366z" mask="url(#b)"/>
        </g>
        <mask id="d" fill="#fff">
            <use xlink:href="#c"/>
        </mask>
        <path fill="#74C388" d="M3.797 145.622h24.994v-24.994H3.797v24.994zM0 149.419h32.589v-32.588H0v32.588zM61.709 31.936h59.81a1.9 1.9 0 0 0 0-3.797h-59.81a1.899 1.899 0 0 0 0 3.797M61.709 44.428h37.097a1.899 1.899 0 0 0 0-3.797H61.71a1.899 1.899 0 0 0 0 3.797M28.791 98.748H3.797V73.755h.432c.094.115.173.237.28.345l18.369 18.54 5.913-5.84v11.948zm0-24.993v.602l-5.467 5.44-5.925-6.042H28.79zM51.037 52.22L32.589 70.578v-.62H13.676l-2.44-2.489a4.482 4.482 0 0 0-6.353-.05l-.342.339a4.453 4.453 0 0 0-1.21 2.2H0v32.587h32.589V83.048l24.76-24.46a4.482 4.482 0 1 0-6.311-6.366zM121.519 78.107h-59.81a1.899 1.899 0 0 0 0 3.797h59.81a1.9 1.9 0 0 0 0-3.797M61.709 94.396h37.097a1.899 1.899 0 0 0 0-3.797H61.71a1.899 1.899 0 0 0 0 3.797M121.519 124.98h-59.81a1.9 1.9 0 0 0 0 3.798h59.81a1.9 1.9 0 0 0 0-3.797M98.807 137.473H61.709a1.899 1.899 0 0 0 0 3.797h37.098a1.9 1.9 0 0 0 0-3.797" mask="url(#d)"/>
    </g>
</svg>
