<svg xmlns="http://www.w3.org/2000/svg" width="87.876" height="88.347" viewBox="0 0 87.876 88.347">
  <g id="Grupo_6" data-name="Grupo 6" transform="translate(-6.062 -3.5)">
    <path id="Caminho_9" data-name="Caminho 9" d="M21.362,72h2.812c1.847,4.431,5.76,8,10.877,8h10.9C53.159,80,58,72.926,58,66.319V51.5A1.5,1.5,0,0,0,56.5,50h-32A1.5,1.5,0,0,0,23,51.5V52H21.362C16.907,52,13,55.651,13,59.812v4.31C13,68.319,16.907,72,21.362,72ZM26,53H55V66.319C55,71.371,51.284,77,45.952,77h-10.9C29.717,77,26,71.371,26,66.319ZM16,59.812C16,57.339,18.606,55,21.362,55H23V66.319A14.234,14.234,0,0,0,23.266,69h-1.9C18.606,69,16,66.63,16,64.123Z" transform="translate(0 -3.434)"/>
    <path id="Caminho_10" data-name="Caminho 10" d="M81.081,3.5H22.164a1.463,1.463,0,0,0-1.5,1.425v24.6a1.463,1.463,0,0,0,1.5,1.425h7.278l1.645,4.382a1.5,1.5,0,0,0,1.413.946h3.27v3.681a1.463,1.463,0,0,0,1.5,1.425h6.875a1.463,1.463,0,0,0,1.5-1.425V36.274h3.271a1.5,1.5,0,0,0,1.413-.946l1.645-4.382H65.047v46.34H18.97A13.039,13.039,0,0,0,6.062,90.423a1.463,1.463,0,0,0,1.5,1.424H92.438a1.463,1.463,0,0,0,1.5-1.425V16.011A12.7,12.7,0,0,0,81.081,3.5ZM42.646,38.53H38.771V36.274h3.875Zm5.212-5.106h-14.3l-.93-2.478H48.789ZM90.938,89H9.152a9.917,9.917,0,0,1,9.818-8.862H66.547a1.463,1.463,0,0,0,1.5-1.425V29.521a1.463,1.463,0,0,0-1.5-1.425H23.664V6.35H81.081a9.892,9.892,0,0,1,9.857,9.661Z"/>
  </g>
</svg>
