<svg xmlns="http://www.w3.org/2000/svg" width="33.083" height="88.347" viewBox="0 0 33.083 88.347">
  <g id="Grupo_5" data-name="Grupo 5" transform="translate(-33.991 -5.1)">
    <path id="Caminho_7" data-name="Caminho 7" d="M41,78.1a9.555,9.555,0,0,0,19.1.5c0-.1.1-.3,0-.5v-.5a9.892,9.892,0,0,0-7.9-9V37.9a1.6,1.6,0,0,0-3.2,0V68.6A9.918,9.918,0,0,0,41,78.1Zm15.9,0c-.4,8.1-12.7,8.2-12.7,0S56.4,70,56.9,78.1Z" transform="translate(0 -1.553)"/>
    <path id="Caminho_8" data-name="Caminho 8" d="M34.3,80.279A16.52,16.52,0,0,0,50.5,93.447,16.712,16.712,0,0,0,66.8,80.279c1.4-7.567-2.7-14.544-9.4-17.787v-51.1a1.4,1.4,0,0,0-.2-.688c-1.4-7.469-12-7.469-13.5,0a1.4,1.4,0,0,0-.2.688v6.486H39.3a1.572,1.572,0,1,0,0,3.145h4.2v5.4H39.3a1.572,1.572,0,1,0,0,3.145h4.2v5.4H39.3a1.572,1.572,0,1,0,0,3.145h4.2v5.4H39.3a1.572,1.572,0,1,0,0,3.145h4.2v5.4H39.3a1.572,1.572,0,1,0,0,3.145h4.2v7.272C36.9,65.833,32.8,72.712,34.3,80.279ZM54.1,11.488h0V63.376a1.686,1.686,0,0,0,1.2,1.572,13.25,13.25,0,1,1-9.6.1,1.686,1.686,0,0,0,1.2-1.572V11.488h0A3.6,3.6,0,0,1,54.1,11.488Z"/>
  </g>
</svg>
