<svg xmlns="http://www.w3.org/2000/svg" width="64.591" height="88.347" viewBox="0 0 64.591 88.347">
  <g id="Grupo_1" data-name="Grupo 1" transform="translate(-22.406 -9.999)">
    <path id="Caminho_2" data-name="Caminho 2" d="M84.337,41.783c-2.886-2.066-7.306-1.4-9.577-.855.025-2.378-.01-3.8-.011-3.841a1.1,1.1,0,0,0-1.1-1.073H23.531a1.1,1.1,0,0,0-1.1,1.073A176.919,176.919,0,0,0,23.708,60.7c2.117,16.982,6.428,28.635,12.813,34.633a1.106,1.106,0,0,0,.756.3H59.9a1.106,1.106,0,0,0,.756-.3c4.527-4.252,8-11.358,10.4-21.176C78.793,68.386,87,58.47,87,47.784,87,45.065,86.1,43.046,84.337,41.783ZM59.455,93.423H37.722c-12.807-12.6-13.152-48.516-13.1-55.2H72.556C72.606,44.907,72.261,80.827,59.455,93.423Zm12.374-22.7c.642-3.108,1.192-6.44,1.639-10.027.845-6.779,1.152-13.1,1.255-17.488,2.057-.563,6.112-1.22,8.33.367,1.167.837,1.736,2.212,1.736,4.205C84.788,55.41,79.877,64.005,71.829,70.727Z" transform="translate(0 2.714)"/>
    <path id="Caminho_3" data-name="Caminho 3" d="M37,68.947a1.1,1.1,0,1,0-2.127.593,81.569,81.569,0,0,0,4.592,12.7,1.1,1.1,0,1,0,2-.938A79.392,79.392,0,0,1,37,68.947Z" transform="translate(1.297 6.065)"/>
    <path id="Caminho_4" data-name="Caminho 4" d="M34.758,26.53a8.094,8.094,0,0,0,1.75,5.155,1.1,1.1,0,0,0,1.821-1.251,6.275,6.275,0,0,1,0-7.808,8.091,8.091,0,0,0,1.75-5.156,9.365,9.365,0,0,0-2.254-6.205c-.193-.261-.383-.516-.56-.777a1.1,1.1,0,0,0-1.832,1.235c.2.288.405.572.62.86A7.2,7.2,0,0,1,37.87,17.47a5.987,5.987,0,0,1-1.362,3.9A8.085,8.085,0,0,0,34.758,26.53Z" transform="translate(1.289 0)"/>
    <path id="Caminho_5" data-name="Caminho 5" d="M43.706,26.53a8.087,8.087,0,0,0,1.749,5.154,1.1,1.1,0,1,0,1.82-1.251,6.277,6.277,0,0,1,0-7.806,8.091,8.091,0,0,0,1.75-5.156,9.356,9.356,0,0,0-2.254-6.2c-.193-.261-.384-.516-.56-.779a1.1,1.1,0,0,0-1.832,1.235c.2.288.405.572.62.861a7.188,7.188,0,0,1,1.818,4.887,5.981,5.981,0,0,1-1.362,3.9A8.085,8.085,0,0,0,43.706,26.53Z" transform="translate(2.222 0)"/>
    <path id="Caminho_6" data-name="Caminho 6" d="M52.654,26.53A8.092,8.092,0,0,0,54.4,31.685a1.1,1.1,0,1,0,1.821-1.251,6.277,6.277,0,0,1,0-7.808,8.1,8.1,0,0,0,1.749-5.156,9.365,9.365,0,0,0-2.254-6.205c-.193-.261-.383-.516-.56-.777a1.1,1.1,0,0,0-1.832,1.235c.2.288.405.572.62.86a7.2,7.2,0,0,1,1.818,4.888,5.981,5.981,0,0,1-1.362,3.9A8.092,8.092,0,0,0,52.654,26.53Z" transform="translate(3.155 0)"/>
  </g>
</svg>
