<svg width="136" height="32" viewBox="0 0 136 32" fill="none" xmlns="http://www.w3.org/2000/svg">
<path fill-rule="evenodd" clip-rule="evenodd" d="M48.4298 12.4806L49.8809 7.21685C50.339 5.54133 51.6123 4.6645 53.4095 4.66468C55.1816 4.66468 55.9628 5.54168 55.5047 7.21721L54.0534 12.481C53.5955 14.1554 52.3221 15.0332 50.55 15.0332C48.7527 15.033 47.9719 14.1551 48.4298 12.4806ZM54.5907 0.0113831C49.5065 0.0110319 46.0486 2.61623 44.7985 7.18946L43.472 12.0018C42.2452 16.601 44.2846 19.685 49.3437 19.6854C54.428 19.6856 57.8514 17.1604 59.1276 12.5872L60.4279 7.77484C61.6809 3.17562 59.6499 0.0115587 54.5907 0.0113831Z" fill="white"/>
<path fill-rule="evenodd" clip-rule="evenodd" d="M94.4655 0.344521C94.3196 0.150684 94.0608 0.0643009 93.6262 0.0643009L82.0662 0.0635986C81.2551 0.0635986 80.8811 0.35962 80.6358 1.19729L80.033 3.37672C79.9095 3.85885 79.923 4.14943 80.0784 4.34871C80.2236 4.53482 80.4766 4.61787 80.899 4.61787L84.1657 4.61822L80.9408 16.3297C80.8087 16.7816 80.8168 17.0722 80.9676 17.2725C81.1131 17.4664 81.3722 17.5527 81.8069 17.5527H84.4461C85.2585 17.5527 85.6327 17.2567 85.8767 16.4183L89.126 4.6184L92.4578 4.61857C93.2874 4.61857 93.6761 4.30376 93.8908 3.46047L94.4923 1.28649C94.6241 0.83508 94.616 0.544677 94.4655 0.344521Z" fill="white"/>
<path fill-rule="evenodd" clip-rule="evenodd" d="M109.547 0.0920719L97.0426 0.0913696C96.2341 0.0913696 95.9017 0.378788 95.6645 1.18907L95.0134 3.54302C94.7992 4.37999 94.9716 4.66741 95.7799 4.66759L99.5439 4.66776L95.994 17.5601C95.7567 18.3715 95.9538 18.6591 96.7621 18.6591L99.617 18.6593C100.425 18.6593 100.759 18.3717 100.995 17.5605L104.545 4.66794L108.283 4.66811C109.091 4.66811 109.451 4.3807 109.664 3.5439L110.315 1.18977C110.552 0.379666 110.355 0.0920719 109.547 0.0920719Z" fill="white"/>
<path fill-rule="evenodd" clip-rule="evenodd" d="M125.287 22.4391L127.554 22.7687C128.385 22.8082 128.736 22.3692 129.162 21.1168L135.782 1.83558C136.209 0.581441 136.005 0.162517 135.201 0.124241L131.894 0.0773621C130.978 0.106157 130.636 0.426934 130.265 1.68371L124.736 20.6682C124.366 21.9233 124.653 22.312 125.287 22.4391Z" fill="#74C388"/>
<path fill-rule="evenodd" clip-rule="evenodd" d="M36.8228 4.58289L33.1308 4.58271L31.7816 9.45987L35.6241 9.45004C36.9731 9.45004 37.9629 8.49227 38.3307 6.98056C38.7264 5.50484 38.2032 4.58289 36.8228 4.58289ZM43.4502 7.57067C42.653 10.4759 41.0101 12.191 38.5513 13.3922C38.7132 13.7815 38.8423 14.2011 38.9653 14.6804L40.1645 19.8036C40.34 20.6135 39.9527 21.2721 38.9973 21.2721L36.6849 21.2719C35.1509 21.2718 34.5838 20.8827 34.4041 19.8336L33.6776 15.7292C33.4664 14.7106 33.3171 14.2008 32.0436 14.2006H30.4786L28.5566 21.192C28.2858 22.1215 27.9038 22.4509 26.9777 22.4507L23.979 22.4506C23.0531 22.4506 22.826 22.1212 23.0978 21.1917L28.577 1.25748C28.8476 0.329205 29.2296 -0.000175507 30.1557 7.01512e-08L38.132 0.000351216C42.5018 0.000702369 44.7479 2.92685 43.4502 7.57067Z" fill="white"/>
<path fill-rule="evenodd" clip-rule="evenodd" d="M18.739 9.11744C18.0726 11.5095 16.1232 13.0549 13.773 13.0547L9.17156 13.0546L11.4157 4.87376L15.7689 4.87394C17.3076 4.87411 18.0756 5.51198 18.4485 6.04714C18.985 6.81651 19.0852 7.87804 18.739 9.11744ZM23.1304 2.5256C21.9671 0.889059 19.9522 0.0241703 17.303 0.0239947L8.32028 0.023468C7.39942 0.023468 7.1563 0.218358 6.87531 1.1828L0.0381648 26.0802C0.0355222 26.0881 0.0348175 26.0946 0.032351 26.1023C-0.000769686 26.238 -0.154217 27.012 0.684548 27.0129L4.21596 27.013C5.13682 27.0132 5.38012 26.8178 5.66129 25.8521L7.66826 18.5374L12.5983 18.5378C20.3028 18.5382 23.2285 13.8034 24.3262 9.83028C25.1403 6.79913 24.3727 4.27329 23.1304 2.5256Z" fill="white"/>
<path fill-rule="evenodd" clip-rule="evenodd" d="M78.2229 0.115448L75.6129 0.115273C74.8175 0.115273 74.4892 0.398126 74.2812 1.19542L73.9817 2.28223L72.0762 9.11847L71.5781 7.66259C71.5339 7.51528 71.4897 7.36815 71.4374 7.21768L69.1956 0.62936C69.0594 0.269078 68.8265 0.114922 68.2802 0.114922L65.4466 0.114746C64.651 0.114746 64.3229 0.397599 64.0906 1.19489L59.6665 17.3047C59.4329 18.1031 59.6279 18.3861 60.4233 18.3861L63.0333 18.3863C63.8288 18.3863 64.1559 18.1034 64.3894 17.3049L65.5498 13.1109C65.665 12.6849 65.7633 12.2964 65.8506 11.9301L66.6062 9.21468L67.3547 11.3867C67.3942 11.5133 67.4356 11.641 67.4805 11.7721L68.3584 14.2994L69.4565 17.4859L69.4634 17.4805L69.5994 17.872C69.7357 18.2325 69.9432 18.3864 70.4654 18.3866H73.1998C73.9953 18.3868 74.3476 18.1039 74.5558 17.3056L79.0042 1.19577C79.2123 0.398302 79.0183 0.115448 78.2229 0.115448Z" fill="white"/>
<path fill-rule="evenodd" clip-rule="evenodd" d="M112.77 12.456L114.671 9.12879C114.722 9.03872 114.77 8.94829 114.819 8.85787L115.979 6.81961L116.143 12.4561L112.77 12.456ZM121.893 18.9398L120.533 1.01032C120.473 0.277991 120.14 0.0806429 119.351 0.0804673L116.274 0.0802917C115.484 0.0802917 115.085 0.249021 114.591 1.06615L103.404 18.9389C102.915 19.6997 102.956 20.0946 103.801 20.0946L106.796 20.0947C108.157 20.0949 108.598 19.785 109.097 18.9105L110.264 16.8814L116.172 16.8817L116.232 18.9108C116.222 19.7854 116.544 20.0953 117.933 20.0954L120.764 20.0956C121.609 20.0956 121.949 19.7008 121.893 18.9398Z" fill="white"/>
<path fill-rule="evenodd" clip-rule="evenodd" d="M123.955 25.2464C123.955 25.2464 123.515 25.2104 123.421 25.5697C123.328 25.9287 122.542 28.7367 122.542 28.7367C122.542 28.7367 122.427 29.1318 122.83 29.182C123.234 29.2324 126.506 29.6846 126.506 29.6846C126.506 29.6846 126.815 29.735 126.909 29.3832C127.003 29.0311 127.803 26.1585 127.803 26.1585C127.803 26.1585 127.882 25.7779 127.572 25.7419C127.262 25.7061 123.955 25.2464 123.955 25.2464Z" fill="white"/>
<path fill-rule="evenodd" clip-rule="evenodd" d="M120.178 24.769C120.034 24.7516 119.825 24.7306 119.68 24.7135L119.307 24.6703L119.307 24.67C87.7846 20.976 55.4093 22.0922 22.87 28.0217L22.8689 28.0265C22.8689 28.0265 22.6339 28.0865 22.6586 28.2967L23.0132 30.2215C23.1649 31.0337 23.3076 31.795 23.3076 31.795C23.3076 31.795 23.3384 32.0475 23.6474 31.992C23.658 31.9901 23.6652 31.9908 23.6751 31.9896C55.7196 26.1575 87.5953 25.0492 118.627 28.6643C118.627 28.6636 118.627 28.6607 118.627 28.6607C118.627 28.6607 118.676 28.6668 119.04 28.7116C119.054 28.713 119.067 28.7146 119.081 28.7161C119.374 28.7505 119.471 28.5723 119.502 28.4747L119.51 28.4457C119.514 28.4278 119.517 28.4143 119.517 28.4143C119.517 28.4143 120.32 25.5142 120.413 25.1878C120.503 24.8687 120.195 24.7734 120.178 24.769Z" fill="#74C388"/>
</svg>
