<svg width="245" height="412" viewBox="0 0 245 412" fill="none" xmlns="http://www.w3.org/2000/svg">
<path fill-rule="evenodd" clip-rule="evenodd" d="M172.104 69.6533C172.104 69.6533 172.594 63.5318 167.697 62.2274C162.8 60.9229 124.507 49.9844 124.507 49.9844C124.507 49.9844 119.12 48.379 118.435 53.9987C117.749 59.6178 111.579 105.177 111.579 105.177C111.579 105.177 110.894 109.493 115.693 110.797C120.491 112.102 159.666 123.241 159.666 123.241C159.666 123.241 164.857 124.344 165.346 120.029C165.836 115.714 172.104 69.6533 172.104 69.6533Z" stroke="#74C388" stroke-width="4"/>
<path fill-rule="evenodd" clip-rule="evenodd" d="M231.398 264.413C231.398 264.413 231.512 263.125 230.367 262.85C229.221 262.576 220.258 260.273 220.258 260.273C220.258 260.273 218.998 259.934 218.837 261.117C218.677 262.301 217.233 271.892 217.233 271.892C217.233 271.892 217.072 272.801 218.195 273.075C219.318 273.35 228.487 275.695 228.487 275.695C228.487 275.695 229.702 275.928 229.816 275.019C229.931 274.11 231.398 264.413 231.398 264.413Z" stroke="#74C388" stroke-width="4"/>
<path fill-rule="evenodd" clip-rule="evenodd" d="M75.4536 353.814C75.4536 353.814 75.6824 351.237 73.3915 350.688C71.099 350.139 53.1741 345.533 53.1741 345.533C53.1741 345.533 50.6529 344.856 50.332 347.222C50.0111 349.589 47.1229 368.772 47.1229 368.772C47.1229 368.772 46.802 370.589 49.0483 371.138C51.2947 371.687 69.6312 376.377 69.6312 376.377C69.6312 376.377 72.0618 376.842 72.2906 375.025C72.5194 373.208 75.4536 353.814 75.4536 353.814Z" stroke="#13203A" stroke-width="4"/>
<path fill-rule="evenodd" clip-rule="evenodd" d="M231.39 176.053C231.39 176.053 231.785 171.758 227.826 170.843C223.869 169.928 192.907 162.25 192.907 162.25C192.907 162.25 188.553 161.123 187.998 165.069C187.444 169.01 182.455 200.982 182.455 200.982C182.455 200.982 181.901 204.011 185.781 204.926C189.661 205.841 221.333 213.658 221.333 213.658C221.333 213.658 225.532 214.434 225.927 211.405C226.322 208.377 231.39 176.053 231.39 176.053Z" stroke="#13203A" stroke-width="4"/>
<path fill-rule="evenodd" clip-rule="evenodd" d="M227.513 333.671C227.513 333.671 228.293 324.973 220.478 323.12C212.668 321.266 151.56 305.72 151.56 305.72C151.56 305.72 142.965 303.437 141.871 311.427C140.777 319.409 130.931 384.152 130.931 384.152C130.931 384.152 129.837 390.284 137.495 392.138C145.153 393.991 207.664 409.82 207.664 409.82C207.664 409.82 215.95 411.391 216.73 405.258C217.51 399.125 227.513 333.671 227.513 333.671Z" stroke="#13203A" stroke-width="4"/>
<path fill-rule="evenodd" clip-rule="evenodd" d="M110.246 287.091C110.246 287.091 110.641 282.796 106.681 281.881C102.724 280.966 71.7629 273.288 71.7629 273.288C71.7629 273.288 67.408 272.161 66.8537 276.107C66.2994 280.048 61.3107 312.02 61.3107 312.02C61.3107 312.02 60.7564 315.049 64.6365 315.964C68.5166 316.879 100.189 324.696 100.189 324.696C100.189 324.696 104.387 325.472 104.782 322.443C105.177 319.415 110.246 287.091 110.246 287.091Z" stroke="#74C388" stroke-width="4"/>
<path fill-rule="evenodd" clip-rule="evenodd" d="M206.923 67.3646C206.923 67.3646 206.631 70.6942 209.548 71.4034C212.465 72.1127 235.278 78.0618 235.278 78.0618C235.278 78.0618 238.487 78.9348 238.896 75.8784C239.304 72.8226 242.98 48.0443 242.98 48.0443C242.98 48.0443 243.388 45.6978 240.529 44.9885C237.671 44.2786 214.332 38.2207 214.332 38.2207C214.332 38.2207 211.24 37.6202 210.948 39.9674C210.656 42.3139 206.923 67.3646 206.923 67.3646Z" stroke="#74C388" stroke-width="4"/>
<path fill-rule="evenodd" clip-rule="evenodd" d="M160.522 13.3082C160.522 13.3082 160.408 14.5968 161.553 14.8713C162.699 15.1459 171.662 17.4491 171.662 17.4491C171.662 17.4491 172.922 17.7867 173.083 16.6036C173.243 15.4211 174.687 5.82944 174.687 5.82944C174.687 5.82944 174.848 4.92088 173.725 4.64632C172.601 4.37176 163.433 2.02673 163.433 2.02673C163.433 2.02673 162.218 1.79396 162.104 2.70252C161.989 3.61109 160.522 13.3082 160.522 13.3082Z" stroke="#13203A" stroke-width="4"/>
<path fill-rule="evenodd" clip-rule="evenodd" d="M130.88 173.409C130.88 173.409 130.766 174.698 131.912 174.973C133.057 175.247 142.02 177.55 142.02 177.55C142.02 177.55 143.281 177.888 143.441 176.705C143.601 175.522 145.046 165.931 145.046 165.931C145.046 165.931 145.206 165.022 144.083 164.748C142.96 164.473 133.791 162.128 133.791 162.128C133.791 162.128 132.576 161.895 132.462 162.804C132.347 163.712 130.88 173.409 130.88 173.409Z" stroke="#74C388" stroke-width="4"/>
<path fill-rule="evenodd" clip-rule="evenodd" d="M133.458 266.372C133.458 266.372 133.343 267.66 134.489 267.935C135.635 268.209 144.598 270.512 144.598 270.512C144.598 270.512 145.858 270.85 146.019 269.667C146.179 268.484 147.623 258.893 147.623 258.893C147.623 258.893 147.784 257.984 146.66 257.71C145.537 257.435 136.369 255.09 136.369 255.09C136.369 255.09 135.154 254.857 135.039 255.766C134.925 256.674 133.458 266.372 133.458 266.372Z" stroke="#13203A" stroke-width="4"/>
<path fill-rule="evenodd" clip-rule="evenodd" d="M2.00321 356.751C2.00321 356.751 1.88882 358.04 3.03431 358.314C4.18052 358.589 13.143 360.892 13.143 360.892C13.143 360.892 14.4036 361.23 14.564 360.047C14.7245 358.864 16.1686 349.272 16.1686 349.272C16.1686 349.272 16.3291 348.364 15.2059 348.089C14.0827 347.815 4.91443 345.47 4.91443 345.47C4.91443 345.47 3.69914 345.237 3.58474 346.146C3.47033 347.054 2.00321 356.751 2.00321 356.751Z" stroke="#74C388" stroke-width="4"/>
</svg>
